<svg fill="none" height="20" viewBox="0 0 21 20" width="21" xmlns="http://www.w3.org/2000/svg">
  <path
    d="M19.5548 7.48664L13.6759 6.63226L11.0479 1.30449C10.9762 1.15862 10.8581 1.04053 10.7122 0.968751C10.3464 0.788149 9.9018 0.938651 9.71888 1.30449L7.09089 6.63226L1.21205 7.48664C1.04997 7.5098 0.901784 7.58621 0.788328 7.70198C0.651167 7.84295 0.575585 8.03262 0.57819 8.22929C0.580795 8.42597 0.661374 8.61356 0.802221 8.75086L5.05564 12.8978L4.05075 18.7534C4.02718 18.8897 4.04226 19.0298 4.09426 19.1578C4.14626 19.2859 4.23311 19.3969 4.34496 19.4781C4.45681 19.5594 4.58919 19.6076 4.72708 19.6175C4.86497 19.6273 5.00285 19.5983 5.1251 19.5337L10.3834 16.7691L15.6417 19.5337C15.7853 19.6102 15.952 19.6356 16.1117 19.6078C16.5146 19.5384 16.7855 19.1563 16.7161 18.7534L15.7112 12.8978L19.9646 8.75086C20.0804 8.6374 20.1568 8.48922 20.1799 8.32714C20.2424 7.92194 19.96 7.54684 19.5548 7.48664Z"
    fill="#CDCCCA"/>
</svg>
