<svg fill="none" height="90" viewBox="0 0 90 90" width="90" xmlns="http://www.w3.org/2000/svg">
  <path
    d="M60.2402 31.1836C60.2402 30.7969 59.9238 30.4805 59.5371 30.4805L53.7363 30.5068L45 40.9219L36.2725 30.5156L30.4629 30.4893C30.0762 30.4893 29.7598 30.7969 29.7598 31.1924C29.7598 31.3594 29.8213 31.5176 29.9268 31.6494L41.3613 45.2725L29.9268 58.8867C29.8206 59.0155 29.7616 59.1768 29.7598 59.3438C29.7598 59.7305 30.0762 60.0469 30.4629 60.0469L36.2725 60.0205L45 49.6055L53.7275 60.0117L59.5283 60.0381C59.915 60.0381 60.2314 59.7305 60.2314 59.335C60.2314 59.168 60.1699 59.0098 60.0644 58.8779L48.6474 45.2637L60.082 31.6406C60.1875 31.5176 60.2402 31.3506 60.2402 31.1836Z"
    fill="#F20000"/>
  <path
    d="M45 5.71289C23.2559 5.71289 5.625 23.3438 5.625 45.0879C5.625 66.832 23.2559 84.4629 45 84.4629C66.7441 84.4629 84.375 66.832 84.375 45.0879C84.375 23.3438 66.7441 5.71289 45 5.71289ZM45 77.7832C26.9473 77.7832 12.3047 63.1406 12.3047 45.0879C12.3047 27.0352 26.9473 12.3926 45 12.3926C63.0527 12.3926 77.6953 27.0352 77.6953 45.0879C77.6953 63.1406 63.0527 77.7832 45 77.7832Z"
    fill="#F20000"/>
</svg>
