<svg height="67" viewBox="0 0 67 67" width="67" xmlns="http://www.w3.org/2000/svg">
  <path
    d="M59.0593 47.385C54.978 46.9945 51.0928 45.9531 47.5239 44.4062C46.9656 44.1554 46.3479 44.0671 45.7417 44.1512C45.1355 44.2353 44.5652 44.4886 44.0963 44.882L38.2614 50.9204C29.2995 45.5425 21.3158 36.24 17.5672 26.0701L24.5647 21.1809C25.5494 20.3375 25.9387 19.0688 25.6848 17.8725C24.8094 14.0719 24.5567 10.063 24.9472 5.98159C25.1186 4.18977 23.7682 2.55375 21.9764 2.38233L10.4955 1.284C8.70369 1.11258 6.47069 1.70261 6.23261 4.19125C3.28363 35.0172 26.4826 63.0874 57.2753 66.0332C59.6312 66.2585 60.7603 64.257 60.9349 62.432L62.0301 50.9842C62.2015 49.1924 60.8511 47.5564 59.0593 47.385Z"/>
</svg>
