<svg fill="none" height="20" viewBox="0 0 18 20" width="18" xmlns="http://www.w3.org/2000/svg">
  <path clip-rule="evenodd"
        d="M9 0C13.9706 0 18 3.98572 18 8.90236C18 12.1559 15.2777 15.5958 9.94825 19.3432L9 20L8.4278 19.6051C2.85042 15.7559 0 12.2315 0 8.90236C0 3.98572 4.02944 0 9 0ZM9 1.9783C5.13401 1.9783 2 5.07831 2 8.90236C2 11.3049 4.29672 14.2364 9 17.5818C13.7033 14.2364 16 11.3049 16 8.90236C16 5.07831 12.866 1.9783 9 1.9783ZM9 4C11.2091 4 13 5.79086 13 8C13 10.2091 11.2091 12 9 12C6.79086 12 5 10.2091 5 8C5 5.79086 6.79086 4 9 4ZM9 6C7.89543 6 7 6.89543 7 8C7 9.10457 7.89543 10 9 10C10.1046 10 11 9.10457 11 8C11 6.89543 10.1046 6 9 6Z"
        fill="#777E91"
        fill-rule="evenodd"/>
</svg>
