<svg fill="none" height="50" viewBox="0 0 66 50" width="66" xmlns="http://www.w3.org/2000/svg">
  <path
    d="M63.5682 31.9032C63.5682 31.9032 34.436 9.7896 0.250374 38.0922C0.250374 38.0922 25.0913 61.9795 65.8789 41.4274C65.8789 41.4274 52.0254 25.5745 19.5471 37.1611C19.5471 37.1611 48.1494 31.8827 58.7959 40.6993C58.7959 40.6993 26.6438 54.6471 6.71527 37.7933C6.71527 37.7942 29.5462 18.0112 63.5682 31.9032Z"
    fill="#454545"/>
  <path
    d="M52.0049 6.07874C52.1644 8.27891 52.0856 10.4888 51.7698 12.6737C51.3092 15.7793 49.8441 18.672 47.5775 20.9512C51.4486 18.98 58.8284 15.4279 59.2545 7.08339C59.2545 7.08339 59.7707 2.78823 55.9005 1.22958C52.0304 -0.329082 52.0049 6.07874 52.0049 6.07874Z"
    fill="#454545"/>
  <path
    d="M30.1881 20.8911C30.2586 20.9405 31.5241 16.0811 29.376 12.8641C27.3807 9.69 24.4617 9.05685 25.2649 6.90229C25.7665 5.5522 29.3133 4.90694 32.01 8.49633C35.6 13.0466 30.4496 21.054 30.1881 20.8911Z"
    fill="#454545"/>
  <path
    d="M13.2988 26.4711C13.1278 25.5226 12.7392 24.6215 12.1606 23.8319C11.5819 23.0422 10.8275 22.3834 9.95076 21.9022C7.23158 20.4916 5.60067 20.2504 5.2069 18.9767C4.76317 17.5325 6.62721 16.3631 9.5658 17.8119C15.1099 20.5465 13.3987 26.5018 13.2988 26.4711Z"
    fill="#454545"/>
  <path
    d="M0.25 37.8112C13.5922 26.8494 26.1615 23.5086 36.5328 23.5086C46.2148 23.5083 55.6593 26.3586 63.5678 31.6678C29.5458 17.8819 6.7149 37.5151 6.7149 37.5151C26.6444 54.2423 58.7956 40.4015 58.7956 40.4015C48.149 31.6482 19.5468 36.8875 19.5468 36.8875C52.025 25.3885 65.8785 41.1212 65.8785 41.1212C53.6099 47.26 42.7841 49.4015 33.6432 49.4015C12.3962 49.4015 0.25 37.8112 0.25 37.8112ZM13.2993 26.2777C13.1267 25.3337 12.7368 24.4377 12.1573 23.6538C11.5778 22.8699 10.8231 22.2174 9.94735 21.7432C7.22817 20.3466 5.59824 20.1035 5.20446 18.84C4.90375 17.8726 5.65995 17.0272 7.09104 17.0272C7.95775 17.0585 8.80447 17.2837 9.5624 17.6846C15.0909 20.3913 13.4041 26.2777 13.2964 26.2786L13.2993 26.2777ZM51.7733 12.584C52.0892 10.416 52.168 8.22273 52.0084 6.03931C52.0084 6.03931 52.0241 0.984375 54.7726 0.984375C55.1612 0.992809 55.5442 1.07479 55.8991 1.22553C59.7702 2.77208 59.254 7.03651 59.254 7.03651C58.8259 15.3168 51.4481 18.8428 47.578 20.7991C49.843 18.5433 51.3098 15.6711 51.7733 12.584ZM30.1854 20.7376C30.256 20.787 31.5215 15.9639 29.3734 12.7711C27.3791 9.62404 24.4611 8.99554 25.2594 6.85681C25.4705 6.49536 25.7895 6.20142 26.1762 6.01202C26.5628 5.82263 26.9998 5.74627 27.432 5.79257C28.3612 5.85435 29.2613 6.12696 30.0569 6.58753C30.8524 7.0481 31.5203 7.68323 32.0044 8.43968C35.5582 12.9089 30.5488 20.7404 30.1913 20.7404C30.1892 20.7399 30.1872 20.7389 30.1854 20.7376Z"
    fill="url(#paint0_linear)"/>
  <defs>
    <linearGradient gradientUnits="userSpaceOnUse" id="paint0_linear" x1="33.0643" x2="33.0643" y1="0.984375"
                    y2="49.4015">
      <stop stop-color="#00A8AA"/>
      <stop offset="0.247" stop-color="#00A8AA"/>
      <stop offset="1" stop-color="#0B2325"/>
    </linearGradient>
  </defs>
</svg>
