<svg fill="none" height="24" viewBox="0 0 58 24" width="58" xmlns="http://www.w3.org/2000/svg">
  <rect fill="url(#paint0_linear)" height="24" rx="12" width="58"/>
  <path clip-rule="evenodd"
        d="M15.666 16.487L13.0692 17.9137C12.7184 18.1064 12.2845 17.9655 12.1001 17.5989C12.0267 17.453 12.0013 17.2858 12.028 17.1232L12.524 14.1014C12.5639 13.8582 12.4867 13.61 12.3176 13.4377L10.2167 11.2976C9.93291 11.0085 9.92711 10.5338 10.2037 10.2372C10.3139 10.1192 10.4582 10.0423 10.6144 10.0186L13.5178 9.57771C13.7515 9.54222 13.9535 9.38882 14.0581 9.16751L15.3565 6.41816C15.5319 6.04679 15.9621 5.89432 16.3175 6.0776C16.459 6.15058 16.5736 6.27028 16.6434 6.41816L17.9419 9.16751C18.0464 9.38882 18.2484 9.54222 18.4821 9.57771L21.3855 10.0186C21.7777 10.0781 22.0494 10.4587 21.9924 10.8685C21.9698 11.0317 21.8962 11.1825 21.7832 11.2976L19.6823 13.4377C19.5132 13.61 19.436 13.8582 19.4759 14.1014L19.9719 17.1232C20.0389 17.5314 19.7765 17.919 19.386 17.9891C19.2304 18.0169 19.0704 17.9905 18.9307 17.9137L16.3339 16.487C16.1248 16.3722 15.8751 16.3722 15.666 16.487Z"
        fill="#FCFCFD"
        fill-rule="evenodd"/>
  <path
    d="M34.516 8.704H30.628V10.756C30.796 10.548 31.036 10.38 31.348 10.252C31.66 10.116 31.992 10.048 32.344 10.048C32.984 10.048 33.508 10.188 33.916 10.468C34.324 10.748 34.62 11.108 34.804 11.548C34.988 11.98 35.08 12.444 35.08 12.94C35.08 13.86 34.816 14.6 34.288 15.16C33.768 15.72 33.024 16 32.056 16C31.144 16 30.416 15.772 29.872 15.316C29.328 14.86 29.02 14.264 28.948 13.528H30.58C30.652 13.848 30.812 14.104 31.06 14.296C31.316 14.488 31.64 14.584 32.032 14.584C32.504 14.584 32.86 14.436 33.1 14.14C33.34 13.844 33.46 13.452 33.46 12.964C33.46 12.468 33.336 12.092 33.088 11.836C32.848 11.572 32.492 11.44 32.02 11.44C31.684 11.44 31.404 11.524 31.18 11.692C30.956 11.86 30.796 12.084 30.7 12.364H29.092V7.228H34.516V8.704ZM41.0507 4.636L37.8107 18.172H36.1667L39.4067 4.636H41.0507ZM48.0746 8.704H44.1866V10.756C44.3546 10.548 44.5946 10.38 44.9066 10.252C45.2186 10.116 45.5506 10.048 45.9026 10.048C46.5426 10.048 47.0666 10.188 47.4746 10.468C47.8826 10.748 48.1786 11.108 48.3626 11.548C48.5466 11.98 48.6386 12.444 48.6386 12.94C48.6386 13.86 48.3746 14.6 47.8466 15.16C47.3266 15.72 46.5826 16 45.6146 16C44.7026 16 43.9746 15.772 43.4306 15.316C42.8866 14.86 42.5786 14.264 42.5066 13.528H44.1386C44.2106 13.848 44.3706 14.104 44.6186 14.296C44.8746 14.488 45.1986 14.584 45.5906 14.584C46.0626 14.584 46.4186 14.436 46.6586 14.14C46.8986 13.844 47.0186 13.452 47.0186 12.964C47.0186 12.468 46.8946 12.092 46.6466 11.836C46.4066 11.572 46.0506 11.44 45.5786 11.44C45.2426 11.44 44.9626 11.524 44.7386 11.692C44.5146 11.86 44.3546 12.084 44.2586 12.364H42.6506V7.228H48.0746V8.704Z"
    fill="#FCFCFD"/>
  <defs>
    <linearGradient gradientUnits="userSpaceOnUse" id="paint0_linear" x1="29" x2="29" y1="0" y2="24">
      <stop stop-color="#00A8AA"/>
      <stop offset="1" stop-color="#0B2325"/>
    </linearGradient>
  </defs>
</svg>
