<svg fill="none" height="24" viewBox="0 0 58 24" width="58" xmlns="http://www.w3.org/2000/svg">
  <rect fill="#CCB566" height="24" rx="12" width="58"/>
  <path clip-rule="evenodd"
        d="M15.666 16.487L13.0692 17.9137C12.7184 18.1064 12.2845 17.9655 12.1001 17.5989C12.0267 17.453 12.0013 17.2858 12.028 17.1232L12.524 14.1014C12.5639 13.8582 12.4867 13.61 12.3176 13.4377L10.2167 11.2976C9.93291 11.0085 9.92711 10.5338 10.2037 10.2372C10.3139 10.1192 10.4582 10.0423 10.6144 10.0186L13.5178 9.57771C13.7515 9.54222 13.9535 9.38882 14.0581 9.16751L15.3565 6.41816C15.5319 6.04679 15.9621 5.89432 16.3175 6.0776C16.459 6.15058 16.5736 6.27028 16.6434 6.41816L17.9419 9.16751C18.0464 9.38882 18.2484 9.54222 18.4821 9.57771L21.3855 10.0186C21.7777 10.0781 22.0494 10.4587 21.9924 10.8685C21.9698 11.0317 21.8962 11.1825 21.7832 11.2976L19.6823 13.4377C19.5132 13.61 19.436 13.8582 19.4759 14.1014L19.9719 17.1232C20.0389 17.5314 19.7765 17.919 19.386 17.9891C19.2304 18.0169 19.0704 17.9905 18.9307 17.9137L16.3339 16.487C16.1248 16.3722 15.8751 16.3722 15.666 16.487Z"
        fill="#FCFCFD"
        fill-rule="evenodd"/>
  <path
    d="M28.564 14.296V12.976L32.488 7.36H34.444V12.832H35.5V14.296H34.444V16H32.764V14.296H28.564ZM32.872 9.16L30.412 12.832H32.872V9.16ZM41.2616 4.636L38.0216 18.172H36.3776L39.6176 4.636H41.2616ZM48.2855 8.704H44.3975V10.756C44.5655 10.548 44.8055 10.38 45.1175 10.252C45.4295 10.116 45.7615 10.048 46.1135 10.048C46.7535 10.048 47.2775 10.188 47.6855 10.468C48.0935 10.748 48.3895 11.108 48.5735 11.548C48.7575 11.98 48.8495 12.444 48.8495 12.94C48.8495 13.86 48.5855 14.6 48.0575 15.16C47.5375 15.72 46.7935 16 45.8255 16C44.9135 16 44.1855 15.772 43.6415 15.316C43.0975 14.86 42.7895 14.264 42.7175 13.528H44.3495C44.4215 13.848 44.5815 14.104 44.8295 14.296C45.0855 14.488 45.4095 14.584 45.8015 14.584C46.2735 14.584 46.6295 14.436 46.8695 14.14C47.1095 13.844 47.2295 13.452 47.2295 12.964C47.2295 12.468 47.1055 12.092 46.8575 11.836C46.6175 11.572 46.2615 11.44 45.7895 11.44C45.4535 11.44 45.1735 11.524 44.9495 11.692C44.7255 11.86 44.5655 12.084 44.4695 12.364H42.8615V7.228H48.2855V8.704Z"
    fill="#FCFCFD"/>
</svg>
