<svg fill="none" height="28" viewBox="0 0 28 28" width="28" xmlns="http://www.w3.org/2000/svg">
  <circle cx="14.0049" cy="14.005" fill="#EF466F" r="13.335"/>
  <path clip-rule="evenodd"
        d="M7.29289 7.29289C7.68342 6.90237 8.31658 6.90237 8.70711 7.29289L14 12.5858L19.2929 7.29289C19.6834 6.90237 20.3166 6.90237 20.7071 7.29289C21.0976 7.68342 21.0976 8.31658 20.7071 8.70711L15.4142 14L20.7071 19.2929C21.0976 19.6834 21.0976 20.3166 20.7071 20.7071C20.3166 21.0976 19.6834 21.0976 19.2929 20.7071L14 15.4142L8.70711 20.7071C8.31658 21.0976 7.68342 21.0976 7.29289 20.7071C6.90237 20.3166 6.90237 19.6834 7.29289 19.2929L12.5858 14L7.29289 8.70711C6.90237 8.31658 6.90237 7.68342 7.29289 7.29289Z"
        fill="#FCFCFD"
        fill-rule="evenodd"/>
</svg>
