<svg fill="none" height="32" viewBox="0 0 32 32" width="32" xmlns="http://www.w3.org/2000/svg">
  <path clip-rule="evenodd"
        d="M16.0003 29.3334C23.3641 29.3334 29.3337 23.3638 29.3337 16C29.3337 8.63622 23.3641 2.66669 16.0003 2.66669C8.63653 2.66669 2.66699 8.63622 2.66699 16C2.66699 23.3638 8.63653 29.3334 16.0003 29.3334ZM23.3741 12.7071C23.7646 12.3166 23.7646 11.6834 23.3741 11.2929C22.9836 10.9024 22.3504 10.9024 21.9599 11.2929L14.667 18.5858L11.3741 15.2929C10.9836 14.9024 10.3504 14.9024 9.95989 15.2929C9.56936 15.6834 9.56936 16.3166 9.95989 16.7071L13.9599 20.7071C14.1474 20.8947 14.4018 21 14.667 21C14.9322 21 15.1866 20.8947 15.3741 20.7071L23.3741 12.7071Z"
        fill="#45B36B"
        fill-rule="evenodd"/>
</svg>
