<svg fill="none" height="14" viewBox="0 0 14 14" width="14" xmlns="http://www.w3.org/2000/svg">
  <path clip-rule="evenodd"
        d="M3.66634 0.333008C3.29815 0.333008 2.99967 0.631485 2.99967 0.999675V1.66634H2.33301C1.22844 1.66634 0.333008 2.56177 0.333008 3.66634V11.6663C0.333008 12.7709 1.22844 13.6663 2.33301 13.6663H11.6663C12.7709 13.6663 13.6663 12.7709 13.6663 11.6663V3.66634C13.6663 2.56177 12.7709 1.66634 11.6663 1.66634H10.9997V0.999674C10.9997 0.631485 10.7012 0.333008 10.333 0.333008C9.96482 0.333008 9.66634 0.631485 9.66634 0.999675V1.66634H4.33301V0.999674C4.33301 0.631485 4.03453 0.333008 3.66634 0.333008ZM4.99967 7.66634C4.99967 7.29815 5.29815 6.99967 5.66634 6.99967H10.333C10.7012 6.99967 10.9997 7.29815 10.9997 7.66634C10.9997 8.03453 10.7012 8.33301 10.333 8.33301H5.66634C5.29815 8.33301 4.99967 8.03453 4.99967 7.66634ZM2.99967 10.333C2.99967 9.96482 3.29815 9.66634 3.66634 9.66634H7.66634C8.03453 9.66634 8.33301 9.96482 8.33301 10.333C8.33301 10.7012 8.03453 10.9997 7.66634 10.9997H3.66634C3.29815 10.9997 2.99967 10.7012 2.99967 10.333Z"
        fill="#FCFCFD"
        fill-rule="evenodd"/>
</svg>
