<svg height="59" viewBox="0 0 59 59" width="59" xmlns="http://www.w3.org/2000/svg">
  <path
    d="M46.6856 38.7353C43.9307 38.4717 41.3082 37.7688 38.8992 36.7246C38.5224 36.5553 38.1055 36.4957 37.6963 36.5525C37.2871 36.6093 36.9021 36.7802 36.5856 37.0457L32.6471 41.1217C26.5978 37.4916 21.2088 31.2124 18.6785 24.3477L23.4017 21.0475C24.0665 20.4782 24.3292 19.6219 24.1578 18.8144C23.567 16.2489 23.3964 13.5429 23.6599 10.788C23.7757 9.5785 22.8642 8.47418 21.6547 8.35848L13.9051 7.6171C12.6956 7.5014 11.1883 7.89967 11.0276 9.5795C9.03705 30.387 24.6963 49.3344 45.4815 51.3228C47.0717 51.4749 47.8338 50.1239 47.9517 48.892L48.6909 41.1648C48.8066 39.9553 47.8951 38.851 46.6856 38.7353Z"
    fill="white"/>
</svg>
