<svg height="44" viewBox="0 0 55 44" width="55" xmlns="http://www.w3.org/2000/svg">
  <path
    d="M52.6725 27.8313C52.6725 27.8313 28.5476 7.85238 0.353516 33.4136C0.353516 33.4136 20.8936 55.0574 54.6102 36.4496C54.6102 36.4496 43.1776 22.151 16.3399 32.6301C16.3399 32.6301 39.9803 27.9292 48.797 35.862C48.797 35.862 22.25 48.4957 5.77919 33.2177C5.6823 33.2177 24.4784 15.2955 52.6725 27.8313Z"/>
  <path
    d="M43.0811 4.5227C43.178 5.99174 43.2749 8.636 42.8873 10.4968C42.4029 13.5328 41.1434 16.275 39.3994 17.9399C42.5967 16.275 48.7006 13.0431 48.9912 5.50206C48.9912 5.50206 49.3788 1.58463 46.2784 0.213535C43.0811 -1.15756 43.0811 4.5227 43.0811 4.5227Z"/>
  <path
    d="M25.0593 17.9399C25.1561 18.0378 26.125 13.6307 24.381 10.6927C22.734 7.85252 20.3118 7.26491 20.99 5.3062C21.3775 4.13097 24.2842 3.54335 26.5126 6.77523C29.6129 10.8885 25.253 18.1358 25.0593 17.9399Z"/>
  <path
    d="M11.1075 23.0316C11.1075 23.0316 10.72 20.1915 8.3947 18.9183C6.1663 17.6452 4.80988 17.3513 4.51922 16.2741C4.22855 15.0009 5.68186 13.9236 8.10403 15.2947C12.6577 17.6452 11.2044 23.0316 11.1075 23.0316Z"/>
</svg>
