<svg fill="none" height="49" viewBox="0 0 67 49" width="67" xmlns="http://www.w3.org/2000/svg">
  <path
    d="M64.0682 30.9188C64.0682 30.9188 34.936 8.80522 0.750374 37.1078C0.750374 37.1078 25.5913 60.9951 66.3789 40.443C66.3789 40.443 52.5254 24.5901 20.0471 36.1767C20.0471 36.1767 48.6494 30.8983 59.2959 39.7149C59.2959 39.7149 27.1438 53.6627 7.21527 36.8089C7.21527 36.8099 30.0462 17.0268 64.0682 30.9188Z"
    fill="#454545"/>
  <path
    d="M52.5049 5.09436C52.6644 7.29454 52.5856 9.50446 52.2698 11.6893C51.8092 14.795 50.3441 17.6876 48.0775 19.9668C51.9486 17.9957 59.3284 14.4435 59.7545 6.09902C59.7545 6.09902 60.2707 1.80386 56.4005 0.245201C52.5304 -1.31346 52.5049 5.09436 52.5049 5.09436Z"
    fill="#454545"/>
  <path
    d="M30.6881 19.9067C30.7586 19.9561 32.0241 15.0967 29.876 11.8797C27.8807 8.70562 24.9617 8.07247 25.7649 5.91791C26.2665 4.56782 29.8133 3.92257 32.51 7.51195C36.1 12.0622 30.9496 20.0697 30.6881 19.9067Z"
    fill="#454545"/>
  <path
    d="M13.7988 25.4867C13.6278 24.5382 13.2392 23.6371 12.6606 22.8475C12.0819 22.0578 11.3275 21.399 10.4508 20.9178C7.73158 19.5072 6.10067 19.266 5.7069 17.9923C5.26317 16.5482 7.12721 15.3787 10.0658 16.8275C15.6099 19.5621 13.8987 25.5174 13.7988 25.4867Z"
    fill="#454545"/>
  <path
    d="M0.75 36.8268C14.0922 25.865 26.6615 22.5242 37.0328 22.5242C46.7148 22.5239 56.1593 25.3742 64.0678 30.6834C30.0458 16.8976 7.2149 36.5307 7.2149 36.5307C27.1444 53.2579 59.2956 39.4171 59.2956 39.4171C48.649 30.6639 20.0468 35.9031 20.0468 35.9031C52.525 24.4041 66.3785 40.1368 66.3785 40.1368C54.1099 46.2756 43.2841 48.4171 34.1432 48.4171C12.8962 48.4171 0.75 36.8268 0.75 36.8268ZM13.7993 25.2933C13.6267 24.3493 13.2368 23.4533 12.6573 22.6694C12.0778 21.8855 11.3231 21.2331 10.4474 20.7588C7.72817 19.3622 6.09824 19.1192 5.70446 17.8557C5.40375 16.8883 6.15995 16.0428 7.59104 16.0428C8.45775 16.0741 9.30447 16.2993 10.0624 16.7002C15.5909 19.4069 13.9041 25.2933 13.7964 25.2942L13.7993 25.2933ZM52.2733 11.5996C52.5892 9.43163 52.668 7.23836 52.5084 5.05493C52.5084 5.05493 52.5241 0 55.2726 0C55.6612 0.00843409 56.0442 0.0904162 56.3991 0.241154C60.2702 1.78771 59.754 6.05214 59.754 6.05214C59.3259 14.3324 51.9481 17.8585 48.078 19.8147C50.343 17.5589 51.8098 14.6867 52.2733 11.5996ZM30.6854 19.7532C30.756 19.8026 32.0215 14.9795 29.8734 11.7868C27.8791 8.63966 24.9611 8.01117 25.7594 5.87244C25.9705 5.51099 26.2895 5.21704 26.6762 5.02765C27.0628 4.83826 27.4998 4.7619 27.932 4.80819C28.8612 4.86998 29.7613 5.14258 30.5569 5.60316C31.3524 6.06373 32.0203 6.69885 32.5044 7.4553C36.0582 11.9246 31.0488 19.756 30.6913 19.756C30.6892 19.7555 30.6872 19.7545 30.6854 19.7532Z"
    fill="url(#paint0_linear)"/>
  <defs>
    <linearGradient gradientUnits="userSpaceOnUse" id="paint0_linear" x1="33.5643" x2="33.5643" y1="0" y2="48.4171">
      <stop stop-color="#00A8AA"/>
      <stop offset="0.247" stop-color="#00A8AA"/>
      <stop offset="1" stop-color="#0B2325"/>
    </linearGradient>
  </defs>
</svg>
