<svg fill="none" height="28" viewBox="0 0 28 28" width="28" xmlns="http://www.w3.org/2000/svg">
  <path clip-rule="evenodd"
        d="M14.0003 27.3346C21.3641 27.3346 27.3337 21.3651 27.3337 14.0013C27.3337 6.63751 21.3641 0.667969 14.0003 0.667969C6.63653 0.667969 0.666992 6.63751 0.666992 14.0013C0.666992 21.3651 6.63653 27.3346 14.0003 27.3346ZM21.3741 10.7084C21.7646 10.3179 21.7646 9.68472 21.3741 9.2942C20.9836 8.90367 20.3504 8.90367 19.9599 9.2942L12.667 16.5871L9.3741 13.2942C8.98357 12.9037 8.35041 12.9037 7.95989 13.2942C7.56936 13.6847 7.56936 14.3179 7.95989 14.7084L11.9599 18.7084C12.1474 18.8959 12.4018 19.0013 12.667 19.0013C12.9322 19.0013 13.1866 18.8959 13.3741 18.7084L21.3741 10.7084Z"
        fill="#45B36B"
        fill-rule="evenodd"/>
</svg>
