<svg fill="none" height="19" viewBox="0 0 32 19" width="32" xmlns="http://www.w3.org/2000/svg">
  <path
    d="M15.8793 0.112946C5.87895 0.112946 0.637207 7.92426 0.637207 9.16579C0.637207 10.4041 5.87895 18.2186 15.8793 18.2186C25.878 18.2186 31.1213 10.4041 31.1213 9.16579C31.1213 7.92426 25.878 0.112946 15.8793 0.112946ZM15.8793 16.1284C12.1373 16.1284 9.10416 13.0116 9.10416 9.16579C9.10416 5.31995 12.1373 2.19995 15.8793 2.19995C19.6212 2.19995 22.6528 5.31995 22.6528 9.16579C22.6528 13.0116 19.6212 16.1284 15.8793 16.1284ZM15.8793 9.16579C15.2589 8.44318 16.8898 5.68368 15.8793 5.68368C14.0075 5.68368 12.4909 7.24368 12.4909 9.16579C12.4909 11.0879 14.0075 12.6479 15.8793 12.6479C17.7494 12.6479 19.2676 11.0879 19.2676 9.16579C19.2676 8.28152 16.4066 9.77848 15.8793 9.16579Z"
    fill="url(#paint0_linear)"/>
  <defs>
    <linearGradient gradientUnits="userSpaceOnUse" id="paint0_linear" x1="15.8809" x2="15.8809" y1="-0.647082"
                    y2="17.8701">
      <stop offset="0.15625" stop-color="#02BEC0"/>
      <stop offset="0.734375" stop-color="#066365"/>
      <stop offset="1" stop-color="#0B2325"/>
    </linearGradient>
  </defs>
</svg>
