<svg fill="none" height="17" viewBox="0 0 18 17" width="18" xmlns="http://www.w3.org/2000/svg">
  <path clip-rule="evenodd"
        d="M5.99981 8.32047L1.18608 1.58124C0.713313 0.91937 1.18644 0 1.99981 0H15.9998C16.8132 0 17.2863 0.91937 16.8135 1.58124L11.9998 8.32047V13C11.9998 13.3788 11.7858 13.725 11.447 13.8944L7.44702 15.8944C6.78212 16.2269 5.99981 15.7434 5.99981 15V8.32047ZM3.943 2L7.81354 7.41876C7.93469 7.58836 7.99981 7.79158 7.99981 8V13.382L9.99981 12.382V8C9.99981 7.79158 10.0649 7.58836 10.1861 7.41876L14.0566 2H3.943Z"
        fill="#777E91"
        fill-rule="evenodd"/>
</svg>
