<svg height="30" viewBox="0 0 36 30" width="36" xmlns="http://www.w3.org/2000/svg">
  <path
    d="M34.497 30V27.7914C31.3998 26.6411 28.9858 24.8466 27.2551 22.408C25.4787 20.0153 24.6134 17.4847 24.6134 14.816C24.6134 14.2638 24.7045 13.8497 24.8866 13.5736C25.0233 13.3896 25.1599 13.2975 25.2966 13.2975C25.4332 13.2975 25.6609 13.3896 25.9798 13.6196C26.9362 14.3098 28.1204 14.6319 29.5779 14.6319C31.2632 14.6319 32.7662 13.9417 34.087 12.5613C35.3623 11.181 36 9.52454 36 7.59203C36 5.56748 35.2713 3.81902 33.7682 2.30061C32.2652 0.782209 30.4433 0 28.3026 0C25.7976 0 23.6569 1.01227 21.835 3.08282C20.0132 5.15337 19.1022 7.91411 19.1022 11.411C19.1022 15.4601 20.332 19.0951 22.7915 22.2699C25.2966 25.4908 29.168 28.0675 34.497 30ZM15.8229 30V27.7914C12.7257 26.6411 10.3117 24.8466 8.58097 22.408C6.80465 20.0153 5.93927 17.4847 5.93927 14.816C5.93927 14.2638 6.03036 13.8497 6.21255 13.5736C6.34919 13.3896 6.48583 13.2975 6.62247 13.2975C6.75911 13.2975 6.98684 13.3896 7.30567 13.6196C8.26214 14.3098 9.44636 14.6319 10.9038 14.6319C12.5891 14.6319 14.0921 13.9417 15.413 12.5613C16.7338 11.181 17.3715 9.52454 17.3715 7.59203C17.3715 5.56748 16.6427 3.81902 15.1397 2.30061C13.6366 0.782209 11.8148 0 9.67409 0C7.16903 0 4.98279 1.01227 3.20647 3.08282C1.38461 5.15337 0.473682 7.91411 0.473682 11.411C0.473682 15.4601 1.70344 19.0951 4.16295 22.2699C6.62247 25.4908 10.5395 28.0675 15.8229 30Z"/>
</svg>
