<svg fill="none" height="16" viewBox="0 0 16 16" width="16" xmlns="http://www.w3.org/2000/svg">
  <path clip-rule="evenodd"
        d="M7 0C10.866 0 14 3.13401 14 7C14 8.57638 13.4789 10.0311 12.5996 11.2012L12.6545 11.2441L12.7071 11.2929L15.7071 14.2929C16.0976 14.6834 16.0976 15.3166 15.7071 15.7071C15.3466 16.0676 14.7794 16.0953 14.3871 15.7903L14.2929 15.7071L11.2929 12.7071C11.2587 12.6729 11.2275 12.6368 11.1993 12.5992C10.031 13.4789 8.57638 14 7 14C3.13401 14 0 10.866 0 7C0 3.13401 3.13401 0 7 0ZM7 2C4.23858 2 2 4.23858 2 7C2 9.76142 4.23858 12 7 12C9.76142 12 12 9.76142 12 7C12 4.23858 9.76142 2 7 2Z"
        fill="#777E91"
        fill-rule="evenodd"/>
</svg>
