<svg fill="none" height="23" viewBox="0 0 26 23" width="26" xmlns="http://www.w3.org/2000/svg">
  <path
    d="M24.665 3.2575C23.622 1.11703 20.6176 -0.634266 17.1228 0.385378C15.4528 0.867754 13.9958 1.90222 12.9897 3.31977C11.9837 1.90222 10.5267 0.867754 8.85668 0.385378C5.35409 -0.618699 2.35743 1.11703 1.31444 3.2575C-0.148869 6.25417 0.458247 9.62444 3.12022 13.2749C5.2062 16.1315 8.1873 19.027 12.5149 22.3894C12.6517 22.4961 12.8202 22.554 12.9936 22.554C13.1671 22.554 13.3356 22.4961 13.4723 22.3894C17.7922 19.0347 20.7811 16.1626 22.867 13.2749C25.5212 9.62444 26.1283 6.25417 24.665 3.2575Z"
    fill="#CDCCCA"/>
</svg>
