<svg fill="none" height="14" viewBox="0 0 14 14" width="14" xmlns="http://www.w3.org/2000/svg">
  <path clip-rule="evenodd"
        d="M6.99967 13.6667C10.6816 13.6667 13.6663 10.6819 13.6663 7.00004C13.6663 3.31814 10.6816 0.333374 6.99967 0.333374C3.31778 0.333374 0.333008 3.31814 0.333008 7.00004C0.333008 10.6819 3.31778 13.6667 6.99967 13.6667ZM6.99967 1.66671C6.63148 1.66671 6.33301 1.96518 6.33301 2.33337V3.00004C5.22844 3.00004 4.33301 3.89547 4.33301 5.00004V5.37236C4.33301 6.23322 4.88387 6.9975 5.70055 7.26973L7.87716 7.99526C8.14939 8.08601 8.33301 8.34077 8.33301 8.62772V9.00004C8.33301 9.36823 8.03453 9.66671 7.66634 9.66671H6.33301C5.96482 9.66671 5.66634 9.36823 5.66634 9.00004C5.66634 8.63185 5.36786 8.33337 4.99967 8.33337C4.63148 8.33337 4.33301 8.63185 4.33301 9.00004C4.33301 10.1046 5.22844 11 6.33301 11V11.6667C6.33301 12.0349 6.63148 12.3334 6.99967 12.3334C7.36786 12.3334 7.66634 12.0349 7.66634 11.6667V11C8.77091 11 9.66634 10.1046 9.66634 9.00004V8.62772C9.66634 7.76686 9.11548 7.00258 8.2988 6.73035L6.12219 6.00482C5.84996 5.91407 5.66634 5.65932 5.66634 5.37236V5.00004C5.66634 4.63185 5.96482 4.33337 6.33301 4.33337H7.66634C8.03453 4.33337 8.33301 4.63185 8.33301 5.00004C8.33301 5.36823 8.63148 5.66671 8.99967 5.66671C9.36786 5.66671 9.66634 5.36823 9.66634 5.00004C9.66634 3.89547 8.77091 3.00004 7.66634 3.00004V2.33337C7.66634 1.96518 7.36786 1.66671 6.99967 1.66671Z"
        fill="#FCFCFD"
        fill-rule="evenodd"/>
</svg>
