<svg fill="none" height="18" viewBox="0 0 22 18" width="22" xmlns="http://www.w3.org/2000/svg">
  <path clip-rule="evenodd"
        d="M3 0C1.34315 0 0 1.34315 0 3V5H22V3C22 1.34315 20.6569 0 19 0H3ZM22 7H0V15C0 16.6569 1.34315 18 3 18H19C20.6569 18 22 16.6569 22 15V7ZM7 12.5C7 13.3284 6.32843 14 5.5 14C4.67157 14 4 13.3284 4 12.5C4 11.6716 4.67157 11 5.5 11C6.32843 11 7 11.6716 7 12.5ZM10.5 14C11.3284 14 12 13.3284 12 12.5C12 11.6716 11.3284 11 10.5 11C9.67157 11 9 11.6716 9 12.5C9 13.3284 9.67157 14 10.5 14Z"
        fill="#777E91"
        fill-rule="evenodd"/>
</svg>
