<svg fill="none" height="32" viewBox="0 0 32 32" width="32" xmlns="http://www.w3.org/2000/svg">
  <path
    d="M4.6875 4.68142L15.9998 0.688821L27.3122 4.68142V12.6669C27.3122 17.838 26.921 21.2069 25.3654 23.9157C23.8159 26.6136 21.0465 28.7643 15.9998 31.3098C10.9531 28.7643 8.18376 26.6136 6.63433 23.9157C5.07867 21.2069 4.6875 17.838 4.6875 12.6669V4.68142Z"
    stroke="#45B36B" stroke-linecap="round" stroke-linejoin="round" stroke-width="1.375"/>
  <path
    d="M12.875 21.9375C12.875 20.9036 12.0339 20.0625 11 20.0625C10.6552 20.0625 10.375 19.7824 10.375 19.4375C10.375 19.0927 10.6552 18.8125 11 18.8125H12.2499C12.5954 18.8125 12.875 18.533 12.875 18.1875C12.875 17.842 12.5954 17.5625 12.2499 17.5625H11C9.96604 17.5625 9.125 18.4035 9.125 19.4375C9.125 20.4714 9.96604 21.3125 11 21.3125C11.3449 21.3125 11.625 21.5926 11.625 21.9375C11.625 22.2823 11.3448 22.5625 11 22.5625H9.75001C9.40455 22.5625 9.125 22.842 9.125 23.1875C9.125 23.533 9.40455 23.8125 9.75001 23.8125H11C12.0339 23.8125 12.875 22.9715 12.875 21.9375Z"
    fill="#45B36B"/>
  <path
    d="M17.8749 21.9375C17.8749 20.9036 17.0339 20.0625 16 20.0625C15.6551 20.0625 15.3749 19.7824 15.3749 19.4375C15.3749 19.0927 15.6551 18.8125 16 18.8125H17.2499C17.5954 18.8125 17.8749 18.533 17.8749 18.1875C17.8749 17.842 17.5954 17.5625 17.2499 17.5625H16C14.966 17.5625 14.125 18.4035 14.125 19.4375C14.125 20.4714 14.966 21.3125 16 21.3125C16.3448 21.3125 16.625 21.5926 16.625 21.9375C16.625 22.2823 16.3448 22.5625 16 22.5625H14.75C14.4045 22.5625 14.125 22.842 14.125 23.1875C14.125 23.533 14.4045 23.8125 14.75 23.8125H16C17.0339 23.8125 17.8749 22.9715 17.8749 21.9375Z"
    fill="#45B36B"/>
  <path
    d="M19.7498 23.8125H22.2498C22.5953 23.8125 22.8748 23.533 22.8748 23.1875C22.8748 22.8421 22.5953 22.5625 22.2498 22.5625H20.3749V18.1876C20.3749 17.8421 20.0953 17.5626 19.7498 17.5626C19.4044 17.5626 19.1248 17.8421 19.1248 18.1876V23.1875C19.1248 23.533 19.4044 23.8125 19.7498 23.8125Z"
    fill="#45B36B"/>
  <path clip-rule="evenodd"
        d="M19.1875 9.125H12.8125C12.7089 9.125 12.625 9.20895 12.625 9.3125V13.3125C12.625 13.4161 12.7089 13.5 12.8125 13.5H19.1875C19.2911 13.5 19.375 13.4161 19.375 13.3125V9.3125C19.375 9.20895 19.2911 9.125 19.1875 9.125ZM12.8125 7.75C11.9496 7.75 11.25 8.44956 11.25 9.3125V13.3125C11.25 14.1754 11.9496 14.875 12.8125 14.875H19.1875C20.0504 14.875 20.75 14.1754 20.75 13.3125V9.3125C20.75 8.44956 20.0504 7.75 19.1875 7.75H12.8125Z"
        fill="#45B36B"
        fill-rule="evenodd"/>
  <path
    d="M17.1875 8.65625L17.1875 6.84375C17.1875 6.17065 16.6418 5.625 15.9688 5.625C15.2957 5.625 14.75 6.17065 14.75 6.84375L14.75 8.65625L13.375 8.65625L13.375 6.84375C13.375 5.41126 14.5363 4.25 15.9688 4.25C17.4012 4.25 18.5625 5.41126 18.5625 6.84375L18.5625 8.65625L17.1875 8.65625Z"
    fill="#45B36B"/>
  <path
    d="M14.9375 11.3125C14.9375 10.7602 15.3852 10.3125 15.9375 10.3125C16.4898 10.3125 16.9375 10.7602 16.9375 11.3125C16.9375 11.8648 16.4898 12.3125 15.9375 12.3125C15.3852 12.3125 14.9375 11.8648 14.9375 11.3125Z"
    fill="#45B36B"/>
</svg>
