<svg fill="none" height="32" viewBox="0 0 32 32" width="32" xmlns="http://www.w3.org/2000/svg">
  <path clip-rule="evenodd"
        d="M16.0003 26.6667C21.8914 26.6667 26.667 21.891 26.667 16C26.667 10.109 21.8914 5.33332 16.0003 5.33332C10.1093 5.33332 5.33366 10.109 5.33366 16C5.33366 21.891 10.1093 26.6667 16.0003 26.6667ZM16.0003 29.3333C23.3641 29.3333 29.3337 23.3638 29.3337 16C29.3337 8.63619 23.3641 2.66666 16.0003 2.66666C8.63653 2.66666 2.66699 8.63619 2.66699 16C2.66699 23.3638 8.63653 29.3333 16.0003 29.3333Z"
        fill="#EF466F"
        fill-rule="evenodd"/>
  <path clip-rule="evenodd"
        d="M16.0003 9.33334C15.2639 9.33334 14.667 9.9303 14.667 10.6667C14.667 11.4031 15.2639 12 16.0003 12C16.7367 12 17.3337 11.4031 17.3337 10.6667C17.3337 9.9303 16.7367 9.33334 16.0003 9.33334ZM16.0003 14.6667C15.2639 14.6667 14.667 15.2636 14.667 16V21.3333C14.667 22.0697 15.2639 22.6667 16.0003 22.6667C16.7367 22.6667 17.3337 22.0697 17.3337 21.3333V16C17.3337 15.2636 16.7367 14.6667 16.0003 14.6667Z"
        fill="#EF466F"
        fill-rule="evenodd"/>
</svg>
