<svg fill="none" height="16" viewBox="0 0 16 16" width="16" xmlns="http://www.w3.org/2000/svg">
  <path clip-rule="evenodd"
        d="M4.66634 10.6015V12.6641L8.04115 10.6698L8.39389 10.6641C9.79649 10.6411 11.0588 10.4999 12.0026 10.3563C12.5982 10.2656 13.0121 9.84993 13.1021 9.32794C13.2268 8.6039 13.333 7.6866 13.333 6.66732C13.333 5.64804 13.2268 4.73073 13.1021 4.00669C13.0121 3.48471 12.5982 3.069 12.0026 2.97836C10.9703 2.82129 9.55856 2.66732 7.99967 2.66732C6.44079 2.66732 5.02906 2.82129 3.99676 2.97836C3.4011 3.069 2.98721 3.48471 2.8973 4.0067C2.77258 4.73073 2.66634 5.64804 2.66634 6.66732C2.66634 7.6866 2.77258 8.6039 2.8973 9.32794C2.97537 9.78122 3.29203 10.1445 3.75373 10.2981L4.66634 10.6015ZM1.58331 3.78036C1.77677 2.65724 2.66949 1.83164 3.79619 1.6602C4.87575 1.49594 6.35673 1.33398 7.99967 1.33398C9.64262 1.33398 11.1236 1.49594 12.2032 1.6602C13.3299 1.83164 14.2226 2.65723 14.416 3.78036C14.5509 4.56313 14.6663 5.55749 14.6663 6.66732C14.6663 7.77715 14.5509 8.77151 14.416 9.55427C14.2226 10.6774 13.3299 11.503 12.2032 11.6744C11.2155 11.8247 9.89194 11.9731 8.41573 11.9972L4.33883 14.4063C3.89442 14.6689 3.33301 14.3486 3.33301 13.8324V11.5633C2.43071 11.2633 1.74938 10.5184 1.58331 9.55427C1.44848 8.77151 1.33301 7.77715 1.33301 6.66732C1.33301 5.55749 1.44848 4.56313 1.58331 3.78036Z"
        fill="#23262F"
        fill-rule="evenodd"/>
  <path clip-rule="evenodd"
        d="M4.66667 4.66602C4.29848 4.66602 4 4.96449 4 5.33268C4 5.70087 4.29848 5.99935 4.66667 5.99935H11.3333C11.7015 5.99935 12 5.70087 12 5.33268C12 4.96449 11.7015 4.66602 11.3333 4.66602H4.66667ZM4.66667 7.33268C4.29848 7.33268 4 7.63116 4 7.99935C4 8.36754 4.29848 8.66602 4.66667 8.66602H7.33333C7.70152 8.66602 8 8.36754 8 7.99935C8 7.63116 7.70152 7.33268 7.33333 7.33268H4.66667Z"
        fill="#23262F"
        fill-rule="evenodd"/>
</svg>
