<svg fill="none" height="16" viewBox="0 0 20 16" width="20" xmlns="http://www.w3.org/2000/svg">
  <path clip-rule="evenodd"
        d="M10.5767 3.76422C10.2542 4.07365 9.74511 4.07365 9.42267 3.76422L8.84567 3.2105C8.17032 2.56239 7.25795 2.16667 6.24967 2.16667C4.17861 2.16667 2.49967 3.8456 2.49967 5.91667C2.49967 7.90219 3.5745 9.54171 5.12614 10.8888C6.67911 12.237 8.53584 13.1312 9.64521 13.5876C9.87717 13.683 10.1222 13.683 10.3541 13.5876C11.4635 13.1312 13.3202 12.237 14.8732 10.8888C16.4249 9.54171 17.4997 7.90218 17.4997 5.91667C17.4997 3.8456 15.8207 2.16667 13.7497 2.16667C12.7414 2.16667 11.829 2.56239 11.1537 3.2105L10.5767 3.76422ZM9.99967 2.00798C9.02643 1.074 7.70508 0.5 6.24967 0.5C3.25813 0.5 0.833008 2.92512 0.833008 5.91667C0.833008 11.2235 6.64163 14.1542 9.01117 15.1289C9.64931 15.3914 10.35 15.3914 10.9882 15.1289C13.3577 14.1542 19.1663 11.2235 19.1663 5.91667C19.1663 2.92512 16.7412 0.5 13.7497 0.5C12.2943 0.5 10.9729 1.074 9.99967 2.00798Z"
        fill="#777E91"
        fill-rule="evenodd"/>
</svg>
