<svg fill="none" height="14" viewBox="0 0 15 14" width="15" xmlns="http://www.w3.org/2000/svg">
  <path clip-rule="evenodd"
        d="M2.16732 6.9987C2.16732 4.05318 4.55513 1.66536 7.50065 1.66536C10.4462 1.66536 12.834 4.05318 12.834 6.9987C12.834 9.94422 10.4462 12.332 7.50065 12.332C4.55513 12.332 2.16732 9.94422 2.16732 6.9987ZM7.50065 0.332031C3.81875 0.332031 0.833984 3.3168 0.833984 6.9987C0.833984 10.6806 3.81875 13.6654 7.50065 13.6654C11.1825 13.6654 14.1673 10.6806 14.1673 6.9987C14.1673 3.3168 11.1825 0.332031 7.50065 0.332031ZM9.51935 8.17524C9.60594 7.81738 9.96625 7.59747 10.3241 7.68406C10.682 7.77066 10.9019 8.13096 10.8153 8.48882C10.64 9.21318 10.2101 9.85143 9.60661 10.3041C9.00381 10.7562 8.26116 10.9987 7.50065 10.9987C6.74014 10.9987 5.9975 10.7562 5.39469 10.3041C4.79119 9.85143 4.36129 9.21318 4.18602 8.48882C4.09942 8.13096 4.31933 7.77066 4.67719 7.68406C5.03506 7.59747 5.39536 7.81738 5.48195 8.17524C5.58157 8.58693 5.82917 8.96326 6.19469 9.2374C6.56091 9.51206 7.02132 9.66537 7.50065 9.66537C7.97998 9.66537 8.44039 9.51206 8.80661 9.2374C9.17213 8.96326 9.41973 8.58693 9.51935 8.17524ZM6.28636 6.32132C5.92409 6.38706 5.57711 6.14668 5.51137 5.78441C5.50844 5.7683 5.50476 5.75377 5.50065 5.74075C5.49654 5.75377 5.49286 5.7683 5.48994 5.78441C5.42419 6.14668 5.07721 6.38706 4.71494 6.32132C4.35267 6.25557 4.11229 5.9086 4.17803 5.54632C4.23351 5.2406 4.37408 4.94307 4.60276 4.71439C4.83446 4.48269 5.14943 4.33203 5.50065 4.33203C5.85187 4.33203 6.16684 4.48269 6.39855 4.71439C6.62722 4.94307 6.76779 5.2406 6.82327 5.54632C6.88902 5.9086 6.64863 6.25557 6.28636 6.32132ZM9.51137 5.78441C9.57711 6.14668 9.92409 6.38706 10.2864 6.32132C10.6486 6.25557 10.889 5.9086 10.8233 5.54632C10.7678 5.2406 10.6272 4.94307 10.3985 4.71439C10.1668 4.48269 9.85188 4.33203 9.50065 4.33203C9.14943 4.33203 8.83446 4.48269 8.60276 4.71439C8.37408 4.94307 8.23351 5.2406 8.17803 5.54632C8.11229 5.9086 8.35267 6.25557 8.71494 6.32132C9.07722 6.38706 9.42419 6.14668 9.48994 5.78441C9.49286 5.7683 9.49654 5.75377 9.50065 5.74075C9.50476 5.75377 9.50844 5.7683 9.51137 5.78441Z"
        fill="#23262F"
        fill-rule="evenodd"/>
</svg>
