<svg height="24" viewBox="0 0 24 24" width="24" xmlns="http://www.w3.org/2000/svg">
  <path
    d="M21 19.5V24C20.8906 23.9375 20.7344 23.8438 20.5312 23.7188C20.3281 23.5938 19.9062 23.25 19.2656 22.6875C18.625 22.125 17.9844 21.4688 17.3438 20.7188C16.5781 20.9062 15.7969 21 15 21C13.8594 21 12.8086 20.8828 11.8477 20.6484C10.8867 20.4141 10.1016 20.125 9.49219 19.7812C8.88281 19.4375 8.36328 19.0547 7.93359 18.6328C7.50391 18.2109 7.19922 17.8203 7.01953 17.4609C6.83984 17.1016 6.75 16.7812 6.75 16.5H9C11.0156 16.5 12.8086 16.1484 14.3789 15.4453C15.9492 14.7422 17.1953 13.7031 18.1172 12.3281C19.0391 10.9531 19.5 9.34375 19.5 7.5C22.5 9.01562 24 11.1406 24 13.875C24 16.1094 23 17.9844 21 19.5ZM9 15C8.20312 15 7.42188 14.9062 6.65625 14.7188C6.01562 15.4688 5.39062 16.1172 4.78125 16.6641C4.17188 17.2109 3.71875 17.5703 3.42188 17.7422L3 18V13.5C1 11.9844 0 10.1094 0 7.875C0 6.45312 0.402344 5.13672 1.20703 3.92578C2.01172 2.71484 3.10547 1.75781 4.48828 1.05469C5.87109 0.351562 7.37891 0 9.01172 0C10.6445 0 12.1523 0.351562 13.5352 1.05469C14.918 1.75781 16.0078 2.71484 16.8047 3.92578C17.6016 5.13672 18 6.45312 18 7.875C18 9.29688 17.5938 10.5547 16.7812 11.6484C15.9688 12.7422 14.8828 13.5742 13.5234 14.1445C12.1641 14.7148 10.6562 15 9 15ZM9 1.5C7.64062 1.5 6.38672 1.76562 5.23828 2.29688C4.08984 2.82812 3.17969 3.55469 2.50781 4.47656C1.83594 5.39844 1.5 6.40234 1.5 7.48828C1.5 8.57422 1.83594 9.57812 2.50781 10.5C3.17969 11.4219 4.08984 12.1523 5.23828 12.6914C6.38672 13.2305 7.64062 13.5 9 13.5C10.3594 13.5 11.6133 13.2305 12.7617 12.6914C13.9102 12.1523 14.8203 11.4219 15.4922 10.5C16.1641 9.57812 16.5 8.57422 16.5 7.48828C16.5 6.40234 16.1641 5.39844 15.4922 4.47656C14.8203 3.55469 13.9102 2.82812 12.7617 2.29688C11.6133 1.76562 10.3594 1.5 9 1.5Z"/>
</svg>
