<svg height="16" viewBox="0 0 16 16" width="16" xmlns="http://www.w3.org/2000/svg">
  <path clip-rule="evenodd"
        d="M1.58331 3.78036C1.77677 2.65724 2.66949 1.83164 3.79619 1.6602C4.87575 1.49594 6.35673 1.33398 7.99967 1.33398C9.64262 1.33398 11.1236 1.49594 12.2032 1.6602C13.3299 1.83164 14.2226 2.65723 14.416 3.78036C14.5509 4.56313 14.6663 5.55749 14.6663 6.66732C14.6663 7.77715 14.5509 8.77151 14.416 9.55427C14.2226 10.6774 13.3299 11.503 12.2032 11.6744C11.2155 11.8247 9.89194 11.9731 8.41573 11.9972L4.33883 14.4063C3.89442 14.6689 3.33301 14.3486 3.33301 13.8324V11.5633C2.43071 11.2633 1.74938 10.5184 1.58331 9.55427C1.44848 8.77151 1.33301 7.77715 1.33301 6.66732C1.33301 5.55749 1.44848 4.56313 1.58331 3.78036ZM3.99967 5.33398C3.99967 4.96579 4.29815 4.66732 4.66634 4.66732H11.333C11.7012 4.66732 11.9997 4.96579 11.9997 5.33398C11.9997 5.70217 11.7012 6.00065 11.333 6.00065H4.66634C4.29815 6.00065 3.99967 5.70217 3.99967 5.33398ZM3.99967 8.00065C3.99967 7.63246 4.29815 7.33398 4.66634 7.33398H7.33301C7.7012 7.33398 7.99967 7.63246 7.99967 8.00065C7.99967 8.36884 7.7012 8.66732 7.33301 8.66732H4.66634C4.29815 8.66732 3.99967 8.36884 3.99967 8.00065Z"
  />
</svg>
