<svg height="16" viewBox="0 0 16 16" width="16" xmlns="http://www.w3.org/2000/svg">
  <path clip-rule="evenodd"
        d="M2.66699 2C1.56242 2 0.666992 2.89543 0.666992 4V5.33333H15.3337V4C15.3337 2.89543 14.4382 2 13.3337 2H2.66699ZM15.3337 6.66667H0.666992V12C0.666992 13.1046 1.56242 14 2.66699 14H13.3337C14.4382 14 15.3337 13.1046 15.3337 12V6.66667ZM5.33366 10.3333C5.33366 10.8856 4.88594 11.3333 4.33366 11.3333C3.78137 11.3333 3.33366 10.8856 3.33366 10.3333C3.33366 9.78105 3.78137 9.33333 4.33366 9.33333C4.88594 9.33333 5.33366 9.78105 5.33366 10.3333ZM7.66699 11.3333C8.21928 11.3333 8.66699 10.8856 8.66699 10.3333C8.66699 9.78105 8.21928 9.33333 7.66699 9.33333C7.11471 9.33333 6.66699 9.78105 6.66699 10.3333C6.66699 10.8856 7.11471 11.3333 7.66699 11.3333Z"
  />
</svg>
