<svg height="16" viewBox="0 0 16 16" width="16" xmlns="http://www.w3.org/2000/svg">
  <path clip-rule="evenodd"
        d="M9.33333 1.33268C9.33333 0.964492 9.03486 0.666016 8.66667 0.666016H4C2.89543 0.666016 2 1.56145 2 2.66602V13.3327C2 14.4373 2.89543 15.3327 4 15.3327H12C13.1046 15.3327 14 14.4373 14 13.3327V5.99935C14 5.63116 13.7015 5.33268 13.3333 5.33268H11.3333C10.2288 5.33268 9.33333 4.43725 9.33333 3.33268V1.33268ZM7.33333 7.99935C7.33333 7.63116 7.63181 7.33268 8 7.33268C8.36819 7.33268 8.66667 7.63116 8.66667 7.99935V11.3327C8.66667 11.7009 8.36819 11.9993 8 11.9993C7.63181 11.9993 7.33333 11.7009 7.33333 11.3327V7.99935ZM4.66667 9.99935C4.66667 9.63116 4.96514 9.33268 5.33333 9.33268C5.70152 9.33268 6 9.63116 6 9.99935V11.3327C6 11.7009 5.70152 11.9993 5.33333 11.9993C4.96514 11.9993 4.66667 11.7009 4.66667 11.3327V9.99935ZM10 9.33268C10 8.96449 10.2985 8.66602 10.6667 8.66602C11.0349 8.66602 11.3333 8.96449 11.3333 9.33268V11.3327C11.3333 11.7009 11.0349 11.9993 10.6667 11.9993C10.2985 11.9993 10 11.7009 10 11.3327V9.33268Z"
  />
  <path
    d="M11.3186 0.784393C10.9791 0.642009 10.667 0.964527 10.667 1.33272V3.33272C10.667 3.70091 10.9655 3.99938 11.3337 3.99938H13.3337C13.7018 3.99938 14.0244 3.68731 13.882 3.34777C13.8203 3.20076 13.7318 3.06416 13.6098 2.94219L11.7242 1.05657C11.6022 0.93461 11.4656 0.846037 11.3186 0.784393Z"
  />
</svg>
