<svg fill="none" viewBox="0 0 10 12" xmlns="http://www.w3.org/2000/svg">
  <path
    d="M0.199219 6.09994C0.243434 4.54566 0.902626 3.07245 2.03206 2.00376C3.1615 0.935068 4.66887 0.358246 6.22322 0.39994C7.50229 0.39699 8.7511 0.788818 9.79922 1.52194C9.33459 1.39035 8.85412 1.32305 8.37122 1.32194C7.06864 1.28698 5.80546 1.77061 4.85928 2.66653C3.9131 3.56246 3.36133 4.79739 3.32522 6.09994C3.36211 7.40205 3.91419 8.63631 4.86026 9.53176C5.80632 10.4272 7.06905 10.9106 8.37122 10.8759C8.85412 10.8748 9.33459 10.8075 9.79922 10.6759C8.75106 11.41 7.50184 11.8025 6.22222 11.7999C4.66804 11.8414 3.16093 11.2644 2.03171 10.1958C0.902489 9.1271 0.243436 7.65404 0.199219 6.09994Z"
    fill="white"/>
</svg>
