<svg fill="none" height="37" viewBox="0 0 37 37" width="37" xmlns="http://www.w3.org/2000/svg">
  <path
    d="M19.1058 37C18.7016 36.8725 18.3606 36.5967 18.1514 36.2281C17.9421 35.8595 17.8801 35.4254 17.9778 35.013C18.2508 33.513 18.0718 33.213 17.4478 32.672C17.2719 32.4826 17.1405 32.2565 17.063 32.01C16.9855 31.7635 16.9639 31.5029 16.9998 31.247C17.0003 31.0258 17.05 30.8075 17.1453 30.6079C17.2406 30.4083 17.3791 30.2324 17.5508 30.093C17.7508 29.968 17.6708 29.748 17.4748 29.3C17.0866 28.5801 16.9766 27.7426 17.1658 26.947C16.9725 26.923 16.7831 26.8946 16.5978 26.862C16.6426 27.5713 16.4578 28.2762 16.0707 28.8724C15.6837 29.4685 15.115 29.9242 14.4488 30.172C13.8908 30.472 13.5778 30.66 13.6408 30.959C13.8648 32.018 13.9068 32.613 12.2958 33.503C12.0616 33.5996 11.8504 33.7443 11.6757 33.9278C11.501 34.1112 11.3668 34.3293 11.2818 34.568C11.2589 34.6668 11.2559 34.7691 11.2731 34.869C11.2903 34.969 11.3272 35.0645 11.3818 35.15C11.391 35.1651 11.3947 35.183 11.3921 35.2005C11.3896 35.2181 11.381 35.2342 11.3678 35.246C11.3546 35.2579 11.3377 35.2648 11.32 35.2655C11.3023 35.2662 11.2849 35.2607 11.2708 35.25C10.9617 34.9601 10.7741 34.5639 10.7457 34.1411C10.7173 33.7183 10.8503 33.3005 11.1178 32.972C12.0178 31.736 11.9848 31.388 11.6568 30.633C11.5812 30.3869 11.5613 30.127 11.5985 29.8723C11.6357 29.6175 11.729 29.3742 11.8718 29.16C11.9687 28.9608 12.1087 28.7857 12.2817 28.6473C12.4546 28.5089 12.6562 28.4108 12.8718 28.36C13.0968 28.337 13.1028 28.193 13.0858 27.778C13.0447 27.4159 13.0766 27.0492 13.1797 26.6997C13.2828 26.3502 13.4548 26.0248 13.6858 25.743C13.6208 25.7 13.5568 25.655 13.4938 25.61C13.3323 26.2548 12.9557 26.8252 12.4263 27.2272C11.8969 27.6292 11.2463 27.8386 10.5818 27.821C10.0198 27.876 9.72479 27.921 9.67579 28.221C9.50179 29.29 9.32679 29.86 7.50179 30.112C7.24829 30.1179 6.99884 30.1769 6.76958 30.2853C6.54031 30.3936 6.33632 30.5489 6.17079 30.741C6.11405 30.8253 6.07482 30.9202 6.05541 31.02C6.036 31.1198 6.03681 31.2225 6.05779 31.322C6.06283 31.34 6.06102 31.3593 6.05272 31.3761C6.04441 31.3929 6.03019 31.406 6.01279 31.413C6.00353 31.4146 5.99405 31.4146 5.98479 31.413C5.97095 31.4129 5.95739 31.409 5.94559 31.4018C5.93378 31.3946 5.92417 31.3843 5.91779 31.372C5.73713 30.9906 5.707 30.555 5.83343 30.1524C5.95986 29.7498 6.23354 29.4096 6.59979 29.2C7.88479 28.37 7.98179 28.034 7.94779 27.212C7.96583 26.9545 8.04096 26.7042 8.16775 26.4793C8.29453 26.2545 8.46979 26.0607 8.68079 25.912C8.84284 25.7611 9.03627 25.648 9.2472 25.5807C9.45813 25.5135 9.68133 25.4938 9.90079 25.523C9.92481 25.5324 9.95051 25.5369 9.97631 25.536C10.0021 25.5351 10.0275 25.529 10.0508 25.518C10.1398 25.465 10.1818 25.27 10.2318 25.045C10.2792 24.6563 10.4196 24.2848 10.641 23.9619C10.8624 23.639 11.1584 23.3743 11.5038 23.19C11.511 23.186 11.5187 23.1833 11.5268 23.182C11.4898 23.102 11.4548 23.021 11.4208 22.94C10.9649 23.4576 10.3418 23.7987 9.66019 23.904C8.97854 24.0093 8.28156 23.8719 7.69079 23.516C7.13479 23.287 6.81179 23.17 6.64279 23.416C6.03179 24.316 5.63179 24.754 3.87179 24.216C3.63985 24.115 3.3894 24.0636 3.13645 24.065C2.8835 24.0664 2.63362 24.1205 2.40279 24.224C2.31466 24.2762 2.23803 24.3457 2.17753 24.4284C2.11703 24.5111 2.07392 24.6052 2.05079 24.705C2.04773 24.7226 2.03852 24.7386 2.0248 24.7502C2.01107 24.7617 1.99372 24.768 1.97579 24.768C1.96551 24.7681 1.95531 24.7662 1.94583 24.7622C1.93634 24.7582 1.92776 24.7524 1.92064 24.745C1.91351 24.7376 1.90798 24.7288 1.9044 24.7191C1.90081 24.7095 1.89924 24.6992 1.89979 24.689C1.89542 24.2642 2.05237 23.8537 2.33895 23.5402C2.62553 23.2267 3.02039 23.0336 3.44379 23C4.95979 22.789 5.18979 22.526 5.50779 21.767C5.63343 21.5417 5.80748 21.347 6.01741 21.1971C6.22734 21.0472 6.46791 20.9457 6.72179 20.9C6.93239 20.8313 7.15559 20.8101 7.37535 20.8379C7.5951 20.8658 7.80597 20.9419 7.99279 21.061C8.17979 21.219 8.34779 21.091 8.70879 20.787C8.93636 20.5855 9.18169 20.4051 9.44179 20.248H9.35079C8.40875 20.179 7.52965 19.7492 6.89679 19.048C6.41779 18.615 6.13579 18.379 5.88479 18.548C4.98479 19.156 4.44979 19.419 3.01479 18.268C2.83626 18.0887 2.6223 17.9486 2.38658 17.8567C2.15087 17.7647 1.89857 17.7229 1.64579 17.734C1.54558 17.7506 1.44971 17.7871 1.36384 17.8414C1.27796 17.8957 1.20382 17.9666 1.14579 18.05C1.13595 18.0666 1.12012 18.0789 1.10154 18.0843C1.08296 18.0897 1.06302 18.0878 1.04579 18.079C1.02746 18.0726 1.01237 18.0593 1.00376 18.0419C0.99516 18.0245 0.993734 18.0044 0.999793 17.986C1.15342 17.5909 1.45056 17.2684 1.83177 17.0829C2.21298 16.8975 2.65014 16.8629 3.05579 16.986C4.54279 17.348 4.85579 17.186 5.43079 16.599C5.6309 16.4364 5.86446 16.32 6.11477 16.2581C6.36508 16.1962 6.62596 16.1903 6.87879 16.241C7.09984 16.2548 7.31508 16.3173 7.50908 16.4242C7.70307 16.531 7.871 16.6795 8.00079 16.859C8.11579 17.076 8.31679 17.02 8.76079 16.873C9.46346 16.5876 10.2414 16.5454 10.9708 16.753C10.9858 16.689 11.0008 16.623 11.0178 16.553C10.9538 16.553 10.8918 16.553 10.8308 16.553C10.1586 16.5618 9.50111 16.3561 8.95386 15.9657C8.40661 15.5752 7.99813 15.0205 7.78779 14.382C7.51179 13.826 7.34079 13.515 7.04379 13.577C5.98079 13.797 5.38479 13.836 4.49679 12.227C4.40048 11.9943 4.25676 11.7842 4.07477 11.6101C3.89278 11.4361 3.67653 11.3018 3.43979 11.216C3.34012 11.1919 3.2366 11.1884 3.13553 11.2056C3.03445 11.2228 2.93792 11.2604 2.85179 11.316C2.83676 11.3268 2.81831 11.3317 2.7999 11.3299C2.78149 11.328 2.76439 11.3195 2.75179 11.306C2.73949 11.2922 2.73269 11.2744 2.73269 11.256C2.73269 11.2375 2.73949 11.2197 2.75179 11.206C3.04408 10.8983 3.44182 10.7124 3.86535 10.6855C4.28889 10.6586 4.70694 10.7927 5.03579 11.061C6.27179 11.961 6.62079 11.931 7.37979 11.607C7.6268 11.5324 7.88726 11.5134 8.14247 11.5514C8.39767 11.5895 8.64128 11.6836 8.85579 11.827C9.05493 11.9239 9.23001 12.064 9.36837 12.2369C9.50673 12.4099 9.60491 12.6114 9.65579 12.827C9.68079 13.083 9.82079 13.119 10.2208 13.182C10.9168 13.2634 11.5706 13.5578 12.0928 14.025L12.1038 14.037C12.1628 13.947 12.2248 13.858 12.2898 13.77C11.6289 13.6025 11.0447 13.2149 10.6335 12.6711C10.2224 12.1272 10.0087 11.4595 10.0278 10.778C9.96479 10.201 9.91579 9.87297 9.61479 9.82997C8.53979 9.67497 7.96579 9.50897 7.68279 7.69497C7.67248 7.44195 7.6089 7.19396 7.49621 6.96719C7.38351 6.74042 7.22424 6.53998 7.02879 6.37897C6.94304 6.3242 6.84719 6.28714 6.7469 6.26997C6.6466 6.25279 6.54389 6.25585 6.44479 6.27897C6.42703 6.2837 6.40815 6.28183 6.39166 6.27371C6.37517 6.26558 6.36218 6.25176 6.3551 6.23479C6.34802 6.21783 6.34733 6.19887 6.35316 6.18144C6.35899 6.164 6.37094 6.14927 6.38679 6.13997C6.76659 5.9494 7.2044 5.90946 7.61241 6.02815C8.02043 6.14685 8.36849 6.4154 8.58679 6.77997C9.43879 8.04297 9.77579 8.13397 10.5998 8.08697C10.8573 8.1008 11.1085 8.17156 11.3354 8.29416C11.5623 8.41676 11.7591 8.58814 11.9118 8.79597C12.0658 8.9547 12.1826 9.14571 12.2537 9.35517C12.3248 9.56462 12.3484 9.78727 12.3228 10.007C12.2598 10.253 12.4058 10.338 12.7728 10.524C13.4318 10.8161 13.9775 11.3154 14.3268 11.946L14.5048 11.846C13.9297 11.4416 13.5164 10.8466 13.3383 10.1666C13.1602 9.48649 13.2287 8.7653 13.5318 8.13097C13.7078 7.55297 13.7938 7.21797 13.5318 7.07197C12.5838 6.54297 12.1068 6.18397 12.4948 4.38797C12.5758 4.14869 12.6056 3.89503 12.5822 3.64349C12.5588 3.39195 12.4826 3.14816 12.3588 2.92797C12.2988 2.84501 12.2228 2.77498 12.1351 2.72206C12.0475 2.66914 11.9501 2.63442 11.8488 2.61997C11.8289 2.61997 11.8098 2.61207 11.7958 2.598C11.7817 2.58394 11.7738 2.56486 11.7738 2.54497C11.7738 2.52508 11.7817 2.506 11.7958 2.49194C11.8098 2.47787 11.8289 2.46997 11.8488 2.46997C12.2708 2.42854 12.6928 2.548 13.0305 2.80443C13.3681 3.06087 13.5965 3.43537 13.6698 3.85297C14.0118 5.34097 14.2948 5.54697 15.0818 5.79697C15.3169 5.9022 15.5259 6.05819 15.6936 6.25373C15.8613 6.44928 15.9836 6.67954 16.0518 6.92797C16.1386 7.13164 16.179 7.3521 16.17 7.57333C16.161 7.79457 16.1029 8.01102 15.9998 8.20697C15.8608 8.40697 16.0258 8.57197 16.3818 8.90697C16.6025 9.10511 16.8072 9.32045 16.9938 9.55097C16.9376 8.61793 17.2355 7.69805 17.8278 6.97497C18.1788 6.44697 18.3688 6.13697 18.1718 5.90297C17.4768 5.07097 17.1608 4.56497 18.1718 3.02697C18.3333 2.83255 18.4523 2.60648 18.5212 2.3633C18.5901 2.12012 18.6073 1.86521 18.5718 1.61497C18.5451 1.51527 18.4984 1.42207 18.4344 1.34108C18.3704 1.26009 18.2906 1.19302 18.1998 1.14397C18.1823 1.13643 18.1682 1.12258 18.1604 1.10516C18.1527 1.08775 18.1517 1.06805 18.1578 1.04997C18.1634 1.0318 18.1757 1.01647 18.1923 1.00716C18.2089 0.997856 18.2284 0.99528 18.2468 0.999968C18.6549 1.11258 19.0054 1.3753 19.2279 1.73546C19.4505 2.09562 19.5287 2.52659 19.4468 2.94197C19.2328 4.45297 19.4228 4.74197 20.0678 5.26097C20.2493 5.44295 20.3883 5.66286 20.4747 5.90492C20.5612 6.14698 20.593 6.40517 20.5678 6.66097C20.5758 6.88208 20.5345 7.1022 20.447 7.30541C20.3595 7.50862 20.2279 7.68985 20.0618 7.83597C19.8618 7.96897 19.9558 8.18597 20.1678 8.62497C20.5846 9.33024 20.727 10.1644 20.5678 10.968C20.5655 10.9764 20.5622 10.9844 20.5578 10.992C20.6745 11.0086 20.7895 11.0273 20.9028 11.048C20.8606 10.308 21.0345 9.57176 21.4033 8.92887C21.772 8.28597 22.3198 7.76415 22.9798 7.42697C23.4918 7.07297 23.8618 6.81697 23.7868 6.49897C23.5388 5.44397 23.4868 4.85097 25.0728 3.92397C25.304 3.82191 25.5113 3.67268 25.6814 3.48583C25.8515 3.29899 25.9808 3.07866 26.0608 2.83897C26.0815 2.73876 26.0818 2.6354 26.0617 2.53506C26.0416 2.43473 26.0015 2.33947 25.9438 2.25497C25.9347 2.24018 25.931 2.22267 25.9333 2.20545C25.9356 2.18823 25.9439 2.17235 25.9567 2.16054C25.9694 2.14873 25.9859 2.14172 26.0032 2.1407C26.0206 2.13969 26.0377 2.14473 26.0518 2.15497C26.3675 2.43754 26.5644 2.82927 26.6028 3.25123C26.6412 3.67319 26.5183 4.09403 26.2588 4.42897C25.3888 5.68497 25.4278 6.02897 25.7738 6.77997C25.8548 7.02422 25.8806 7.28339 25.8493 7.53881C25.818 7.79422 25.7304 8.0395 25.5928 8.25697C25.5005 8.45831 25.3647 8.6367 25.1953 8.77935C25.0258 8.92199 24.8269 9.02534 24.6128 9.08197C24.3748 9.11097 24.3608 9.34697 24.3538 9.83497C24.4072 10.6334 24.1735 11.4247 23.6948 12.066C23.7588 12.104 23.8208 12.142 23.8828 12.181C24.0584 11.5 24.4566 10.8973 25.0142 10.4688C25.5717 10.0402 26.2566 9.81043 26.9598 9.81597C27.5748 9.73197 27.9248 9.66897 27.9598 9.36797C28.0868 8.29197 28.2378 7.71597 30.0488 7.38497C30.3014 7.36773 30.5475 7.29778 30.7714 7.17963C30.9953 7.06147 31.192 6.89774 31.3488 6.69897C31.4018 6.61229 31.4369 6.51586 31.452 6.41538C31.4672 6.3149 31.462 6.21241 31.4368 6.11397C31.4308 6.09608 31.4316 6.07658 31.4391 6.05927C31.4467 6.04196 31.4604 6.02809 31.4777 6.02035C31.4949 6.01261 31.5144 6.01156 31.5323 6.0174C31.5503 6.02325 31.5654 6.03557 31.5748 6.05197C31.7749 6.42561 31.8258 6.8612 31.7175 7.27094C31.6091 7.68068 31.3494 8.0341 30.9908 8.25997C29.7438 9.14497 29.6618 9.48497 29.7308 10.305C29.7233 10.5624 29.6588 10.815 29.5419 11.0444C29.425 11.2739 29.2587 11.4746 29.0548 11.632C28.8997 11.7895 28.7117 11.9108 28.5043 11.9873C28.2968 12.0637 28.075 12.0933 27.8548 12.074C27.6158 12.019 27.5358 12.193 27.3748 12.59C27.1423 13.2884 26.6752 13.8849 26.0528 14.278C26.0998 14.347 26.1448 14.415 26.1888 14.483C26.5782 13.9184 27.1443 13.4992 27.798 13.2916C28.4517 13.084 29.1559 13.0996 29.7998 13.336C30.3748 13.465 30.7078 13.524 30.8508 13.256C31.3608 12.3 31.7108 11.816 33.5188 12.164C33.7611 12.2411 34.017 12.2663 34.2697 12.238C34.5225 12.2098 34.7664 12.1287 34.9858 12C35.0666 11.9386 35.1343 11.8616 35.1849 11.7737C35.2356 11.6858 35.2682 11.5887 35.2808 11.488C35.2818 11.4692 35.2897 11.4514 35.303 11.4381C35.3163 11.4248 35.334 11.4169 35.3528 11.416C35.3717 11.4143 35.3905 11.42 35.4053 11.432C35.42 11.4439 35.4295 11.4611 35.4318 11.48C35.4822 11.9011 35.3711 12.3257 35.121 12.6682C34.8709 13.0107 34.5003 13.2458 34.0838 13.326C32.5998 13.699 32.3998 13.986 32.1658 14.775C32.0651 15.0123 31.9131 15.2244 31.7206 15.3959C31.5282 15.5674 31.3001 15.6942 31.0528 15.767C30.8508 15.858 30.6312 15.9031 30.4097 15.8991C30.1882 15.8951 29.9704 15.8422 29.7718 15.744C29.5518 15.596 29.4048 15.704 29.0658 15.986C28.5503 16.4549 27.9141 16.7704 27.2288 16.897C27.2478 16.974 27.2658 17.05 27.2818 17.123C27.2863 17.1142 27.2924 17.1064 27.2998 17.1C27.8428 16.6637 28.5225 16.4333 29.2189 16.4494C29.9152 16.4655 30.5835 16.7271 31.1058 17.188C31.5828 17.506 31.8638 17.675 32.0858 17.471C32.8858 16.736 33.3738 16.395 34.9658 17.318C35.1693 17.469 35.4023 17.5758 35.6497 17.6312C35.897 17.6867 36.1532 17.6897 36.4018 17.64C36.4985 17.6084 36.588 17.5578 36.665 17.4912C36.7419 17.4245 36.8047 17.3432 36.8498 17.252C36.8569 17.2345 36.8703 17.2204 36.8873 17.2122C36.9043 17.2041 36.9237 17.2025 36.9417 17.2079C36.9598 17.2132 36.9752 17.2251 36.985 17.2412C36.9949 17.2573 36.9983 17.2765 36.9948 17.295C36.9026 17.7089 36.6575 18.0728 36.3086 18.3138C35.9596 18.5548 35.5326 18.6553 35.1128 18.595C33.5888 18.459 33.3048 18.664 32.8228 19.332C32.6493 19.523 32.4357 19.6732 32.1973 19.772C31.9588 19.8707 31.7015 19.9154 31.4438 19.903C31.2234 19.9215 31.0017 19.8914 30.7943 19.8146C30.5869 19.7379 30.399 19.6165 30.2438 19.459C30.0938 19.259 29.9018 19.337 29.4798 19.535C28.9715 19.8073 28.4063 19.9567 27.8298 19.971C27.6624 19.9706 27.4952 19.9575 27.3298 19.932C27.3218 19.99 27.3138 20.049 27.3048 20.109C27.9913 19.9467 28.7123 20.0164 29.3551 20.3071C29.9979 20.5978 30.5263 21.0932 30.8578 21.716C31.2258 22.216 31.4488 22.498 31.7328 22.388C32.7458 21.999 33.3278 21.862 34.4648 23.307C34.5982 23.5218 34.775 23.7064 34.9839 23.849C35.1928 23.9916 35.4291 24.089 35.6778 24.135C35.7803 24.1414 35.883 24.127 35.9798 24.0926C36.0765 24.0582 36.1653 24.0046 36.2408 23.935C36.2539 23.9216 36.2714 23.9136 36.29 23.9124C36.3087 23.9112 36.3271 23.9168 36.3418 23.9283C36.3565 23.9398 36.3665 23.9563 36.3698 23.9747C36.3731 23.9931 36.3696 24.0121 36.3598 24.028C36.206 24.2481 36.0033 24.4296 35.7674 24.558C35.5316 24.6864 35.2691 24.7583 35.0008 24.768C34.6967 24.7626 34.3982 24.6852 34.1298 24.542C32.7628 23.855 32.4238 23.942 31.7298 24.384C31.4982 24.4976 31.2443 24.5586 30.9864 24.5626C30.7284 24.5665 30.4728 24.5134 30.2378 24.407C30.0257 24.3436 29.8303 24.2341 29.6655 24.0863C29.5007 23.9384 29.3707 23.756 29.2848 23.552C29.2188 23.308 29.0168 23.306 28.5648 23.327C27.8359 23.4016 27.1018 23.2471 26.4648 22.885C26.4255 22.965 26.3845 23.0446 26.3418 23.124C27.0372 23.231 27.6759 23.5706 28.1535 24.0873C28.6312 24.604 28.9196 25.2673 28.9718 25.969C29.1088 26.574 29.2008 26.917 29.5028 26.923C30.5888 26.945 31.1788 27.038 31.6848 28.804C31.7267 29.0537 31.8207 29.2918 31.9605 29.5028C32.1004 29.7138 32.2831 29.8931 32.4968 30.029C32.5885 30.0732 32.688 30.0987 32.7897 30.1041C32.8913 30.1094 32.993 30.0944 33.0888 30.06C33.1059 30.0527 33.1251 30.0519 33.1428 30.0579C33.1604 30.0638 33.1753 30.076 33.1845 30.0921C33.1938 30.1083 33.1968 30.1273 33.1929 30.1455C33.1891 30.1637 33.1788 30.1799 33.1638 30.191C32.9259 30.3417 32.6567 30.4361 32.3768 30.467C32.3455 30.4816 32.31 30.4845 32.2768 30.475H32.2088C31.9573 30.47 31.7101 30.409 31.4852 30.2964C31.2603 30.1838 31.0634 30.0224 30.9088 29.824C29.9088 28.672 29.5578 28.624 28.7458 28.772C28.4885 28.7894 28.2305 28.7498 27.9903 28.6561C27.75 28.5624 27.5334 28.4169 27.3558 28.23C27.1832 28.0915 27.0436 27.9164 26.9471 27.7173C26.8506 27.5183 26.7996 27.3002 26.7978 27.079C26.8278 26.846 26.6278 26.788 26.1728 26.679C25.3994 26.5614 24.6967 26.1621 24.1998 25.558C24.1138 25.617 24.0268 25.676 23.9388 25.732C24.527 26.1165 24.9719 26.6844 25.2045 27.3477C25.437 28.0109 25.4441 28.7323 25.2248 29.4C25.1168 30.014 25.0688 30.367 25.3448 30.5C26.3268 30.962 26.8278 31.287 26.5678 33.1C26.5037 33.3448 26.4919 33.6004 26.5333 33.8501C26.5746 34.0997 26.6682 34.3379 26.8078 34.549C26.8735 34.6267 26.954 34.6906 27.0446 34.7367C27.1353 34.7829 27.2343 34.8106 27.3358 34.818C27.3549 34.8171 27.3736 34.8237 27.3881 34.8362C27.4026 34.8487 27.4117 34.8663 27.4136 34.8854C27.4156 34.9044 27.4101 34.9235 27.3984 34.9387C27.3867 34.9538 27.3697 34.964 27.3508 34.967C27.2646 34.9814 27.1772 34.9881 27.0898 34.987C26.7098 34.9977 26.3377 34.8768 26.0366 34.6449C25.7354 34.4129 25.5235 34.0841 25.4368 33.714C24.9908 32.254 24.6938 32.068 23.8928 31.873C23.6507 31.7846 23.4311 31.6438 23.2499 31.4605C23.0687 31.2772 22.9304 31.0561 22.8448 30.813C22.7439 30.6162 22.6881 30.3994 22.6813 30.1784C22.6746 29.9573 22.7171 29.7375 22.8058 29.535C22.9308 29.335 22.7548 29.173 22.3758 28.864C21.7 28.4008 21.2181 27.7054 21.0218 26.91C21.0186 26.8957 21.0196 26.8808 21.0248 26.8671C21.0299 26.8535 21.039 26.8416 21.0508 26.833C20.8361 26.8743 20.6161 26.9076 20.3908 26.933C20.7312 27.5839 20.8572 28.3257 20.7509 29.0524C20.6446 29.7792 20.3114 30.4539 19.7988 30.98C19.4388 31.48 19.1778 31.844 19.3738 32.098C20.0368 32.957 20.3318 33.474 19.2668 34.972C19.0976 35.1606 18.9699 35.3828 18.892 35.6239C18.8142 35.8651 18.7879 36.12 18.8148 36.372C18.8372 36.4718 18.8796 36.5661 18.9394 36.6491C18.9992 36.7321 19.0752 36.8021 19.1628 36.855C19.1777 36.8629 19.1895 36.8756 19.1963 36.891C19.2032 36.9064 19.2048 36.9237 19.2007 36.94C19.1967 36.9564 19.1874 36.971 19.1742 36.9815C19.161 36.992 19.1447 36.9978 19.1278 36.998C19.1206 36.9999 19.1132 37.0006 19.1058 37ZM21.1138 26.825C21.1249 26.828 21.1352 26.8334 21.1441 26.8408C21.1529 26.8482 21.1599 26.8575 21.1648 26.868L21.4128 26.761C21.3141 26.7823 21.2141 26.8026 21.1128 26.822L21.1138 26.825ZM27.3388 17.416L27.3438 17.236C27.3291 17.2352 27.3149 17.2304 27.3028 17.222C27.3158 17.286 27.3278 17.351 27.3378 17.414L27.3388 17.416ZM11.9938 14.207L12.0268 14.155H12.0158L11.9938 14.207Z"
    fill="#CFBE72"/>
</svg>
