<svg fill="none" height="66" viewBox="0 0 58 66" width="58" xmlns="http://www.w3.org/2000/svg">
  <path
    d="M35.519 8.56976C35.5477 8.34349 35.564 8.1158 35.5677 7.88774C35.5677 6.05789 34.8408 4.30298 33.5469 3.00909C32.253 1.71519 30.4981 0.988281 28.6682 0.988281C26.8384 0.988281 25.0835 1.71519 23.7896 3.00909C22.4957 4.30298 21.7688 6.05789 21.7688 7.88774C21.7643 8.11536 21.7726 8.34306 21.7936 8.56976C14.9958 10.2465 9.04713 14.3539 5.07057 20.1166C1.09401 25.8792 -0.635234 32.8983 0.209304 39.8487C1.05384 46.799 4.41372 53.1997 9.65462 57.8424C14.8955 62.485 21.6548 65.0483 28.6563 65.0483C35.6578 65.0483 42.417 62.485 47.6579 57.8424C52.8988 53.1997 56.2587 46.799 57.1032 39.8487C57.9478 32.8983 56.2185 25.8792 52.242 20.1166C48.2654 14.3539 42.3167 10.2465 35.519 8.56976ZM39.9072 42.407C40.2722 41.7219 40.5743 41.0051 40.8098 40.2654C42.8569 41.0439 44.9287 41.6295 46.6853 44.1369C44.5399 42.7728 42.321 42.6764 39.9034 42.408L39.9072 42.407ZM45.1933 52.9009C42.9008 49.7353 39.5366 48.8594 36.1484 46.6921C37.1036 46.0025 37.9578 45.183 38.6864 44.2572C40.9531 47.0073 44.0738 48.25 45.1952 52.899L45.1933 52.9009ZM41.2703 38.3894C41.3687 37.7205 41.4175 37.0452 41.4164 36.3691C41.4207 35.8644 41.3888 35.3601 41.3209 34.8599C44.88 35.2009 47.9768 33.8617 52.0717 36.3691C48.1955 35.7607 45.1942 37.5154 41.2712 38.3894H41.2703ZM40.8834 32.7183C40.6671 31.9676 40.3729 31.2415 40.0056 30.5519C42.0029 29.655 43.8799 28.6043 46.9012 29.1392C44.4177 29.6989 42.7814 31.1843 40.8834 32.7174V32.7183ZM38.9816 28.8966C38.2933 27.9494 37.4819 27.0981 36.5687 26.3653C39.3235 24.1005 40.5433 20.9607 45.199 19.8412C42.0296 22.1528 41.1528 25.5132 38.9816 28.8975V28.8966ZM37.0081 28.0455C38.654 29.694 39.7742 31.7935 40.2273 34.0785C40.6804 36.3635 40.4459 38.7316 39.5536 40.8834C38.6613 43.0352 37.1511 44.8742 35.214 46.1681C33.2768 47.4619 30.9996 48.1525 28.6701 48.1526C27.114 48.1666 25.5704 47.8722 24.1287 47.2864C22.6869 46.7005 21.3755 45.8349 20.2702 44.7395C19.1648 43.644 18.2874 42.3404 17.6886 40.904C17.0898 39.4676 16.7816 37.9268 16.7816 36.3706C16.7816 34.8143 17.0898 33.2735 17.6886 31.8371C18.2874 30.4007 19.1648 29.0971 20.2702 28.0017C21.3755 26.9062 22.6869 26.0406 24.1287 25.4548C25.5704 24.869 27.114 24.5746 28.6701 24.5886C31.7962 24.5982 34.7923 25.8404 37.0081 28.0455ZM35.9106 54.6002C35.3499 52.1167 33.8626 50.4861 32.3267 48.5824C33.0708 48.3448 33.7962 48.052 34.4969 47.7065C35.3976 49.7019 36.4465 51.576 35.9106 54.5954V54.6002ZM26.6451 48.9483C27.3144 49.0541 27.9906 49.1109 28.6682 49.1183C29.1649 49.1114 29.661 49.0795 30.1545 49.0228C29.8135 52.58 31.1546 55.65 28.6692 59.744C29.2786 55.8725 27.5229 52.8799 26.646 48.9597L26.6451 48.9483ZM24.7691 48.5213C23.9887 50.5664 23.4041 52.6105 20.8928 54.3872C22.2588 52.2456 22.3314 50.0305 22.5988 47.5957C23.2931 47.9686 24.0194 48.2783 24.7691 48.5213ZM17.4302 30.3332C17.0621 31.0195 16.7525 31.7355 16.5046 32.4738C14.4566 31.6953 12.4087 31.1117 10.6301 28.6043C12.7745 29.9683 14.9935 30.0648 17.4302 30.3332ZM12.1164 19.8402C14.4328 23.0287 17.7712 23.9056 21.1603 26.0491C20.2137 26.7392 19.3687 27.5588 18.65 28.4839C16.3575 25.7339 13.2378 24.516 12.1173 19.8421L12.1164 19.8402ZM16.0662 34.3747C15.96 35.035 15.9028 35.7023 15.8952 36.371C15.8952 36.8821 15.9439 37.3931 15.9907 37.8803C12.4326 37.5393 9.36062 38.8785 5.26565 36.371C9.14188 36.9805 12.1431 35.2248 16.0643 34.3747H16.0662ZM16.4301 40.0467C16.6714 40.7888 16.9644 41.513 17.307 42.214C15.3077 43.09 13.4308 44.1378 10.4075 43.6258C12.8911 43.0651 14.5283 41.5569 16.4301 40.0467ZM18.331 43.8446C19.0218 44.7976 19.8423 45.6496 20.7687 46.3759C18.0148 48.6684 16.7721 51.7795 12.1145 52.8999C15.2839 50.5864 16.1636 47.2308 18.3319 43.8436L18.331 43.8446ZM30.6675 23.7843C30.0055 23.687 29.3373 23.6382 28.6682 23.6381C28.1553 23.6381 27.6442 23.6639 27.1561 23.7107C27.4981 20.1564 26.1579 17.0892 28.6682 13C28.0588 16.8715 29.7896 19.8651 30.6675 23.7843ZM34.7137 25.1483C34.0191 24.7843 33.2935 24.4829 32.5454 24.2476C33.3497 22.2025 33.9343 20.1335 36.4455 18.3568C35.0805 20.5232 34.9821 22.7393 34.7147 25.1483H34.7137ZM28.6692 4.96672C29.4439 4.96672 30.1868 5.27447 30.7346 5.82226C31.2824 6.37006 31.5902 7.11304 31.5902 7.88774C31.5902 8.66244 31.2824 9.40542 30.7346 9.95321C30.1868 10.501 29.4439 10.8088 28.6692 10.8088C27.8945 10.8088 27.1515 10.501 26.6037 9.95321C26.0559 9.40542 25.7481 8.66244 25.7481 7.88774C25.7481 7.11304 26.0559 6.37006 26.6037 5.82226C27.1515 5.27447 27.8945 4.96672 28.6692 4.96672ZM22.8185 25.0499C21.9159 23.0536 20.8919 21.1804 21.4048 18.161C21.9655 20.6187 23.4767 22.2751 24.9888 24.1731C24.2368 24.3891 23.5095 24.683 22.8185 25.0499ZM46.9012 54.6031C44.0646 57.4442 40.604 59.5838 36.7947 60.8517C32.9855 62.1196 28.9329 62.4806 24.9595 61.9061C20.9861 61.3317 17.2017 59.8375 13.9075 57.5426C10.6134 55.2477 7.90048 52.2155 5.98481 48.6873C4.06913 45.1592 3.00358 41.2325 2.87299 37.2199C2.7424 33.2073 3.55038 29.2196 5.23259 25.5744C6.91481 21.9291 9.42481 18.7269 12.5628 16.2227C15.7007 13.7185 19.38 11.9814 23.3076 11.1498C23.4558 11.1212 23.6094 11.1508 23.7364 11.2325C23.8634 11.3141 23.954 11.4415 23.9896 11.5882C24.0087 11.6618 24.0123 11.7385 24.0003 11.8136C23.9883 11.8887 23.9609 11.9605 23.9198 12.0244C23.8787 12.0884 23.8249 12.1432 23.7616 12.1853C23.6983 12.2274 23.627 12.256 23.5521 12.2693C18.0162 13.4519 13.0516 16.4929 9.48289 20.8871C6.55322 24.5046 4.70901 28.8784 4.16413 33.5014C3.61925 38.1244 4.39602 42.8071 6.40436 47.0066C8.4127 51.206 11.5703 54.7501 15.5111 57.2279C19.4518 59.7057 24.0142 61.0156 28.6692 61.0058C34.7594 61.0063 40.634 58.7507 45.1589 54.6744C49.6838 50.5982 52.5384 44.9902 53.1715 38.9329C53.8046 32.8757 52.1715 26.7986 48.5873 21.8747C45.0031 16.9508 39.722 13.5292 33.7633 12.2702C33.6149 12.238 33.4854 12.1481 33.4031 12.0204C33.3209 11.8927 33.2928 11.7376 33.3248 11.5892C33.3634 11.4442 33.4548 11.3189 33.5809 11.2378C33.7071 11.1567 33.859 11.1257 34.0069 11.1507C38.5545 12.1024 42.7599 14.2667 46.1774 17.4143C49.595 20.5619 52.0972 24.5754 53.4189 29.0296C54.7407 33.4838 54.8327 38.2126 53.6853 42.7148C52.5378 47.217 50.1936 51.3249 46.9012 54.6031Z"
    fill="white"/>
</svg>
