<svg height="32" viewBox="0 0 32 32" width="32" xmlns="http://www.w3.org/2000/svg">
  <path
    d="M19.5248 16.0005L30.2748 5.27546C30.7456 4.8047 31.0101 4.16622 31.0101 3.50046C31.0101 2.83471 30.7456 2.19622 30.2748 1.72546C29.8041 1.2547 29.1656 0.990234 28.4998 0.990234C27.8341 0.990234 27.1956 1.2547 26.7248 1.72546L15.9998 12.4755L5.27485 1.72546C4.80409 1.2547 4.1656 0.990234 3.49985 0.990234C2.83409 0.990234 2.19561 1.2547 1.72485 1.72546C1.25409 2.19622 0.989618 2.83471 0.989618 3.50046C0.989618 4.16622 1.25409 4.8047 1.72485 5.27546L12.4748 16.0005L1.72485 26.7255C1.49053 26.9579 1.30454 27.2344 1.17762 27.539C1.0507 27.8437 0.985352 28.1704 0.985352 28.5005C0.985352 28.8305 1.0507 29.1573 1.17762 29.4619C1.30454 29.7666 1.49053 30.0431 1.72485 30.2755C1.95725 30.5098 2.23376 30.6958 2.53841 30.8227C2.84305 30.9496 3.16982 31.015 3.49985 31.015C3.82988 31.015 4.15664 30.9496 4.46129 30.8227C4.76594 30.6958 5.04244 30.5098 5.27485 30.2755L15.9998 19.5255L26.7248 30.2755C26.9573 30.5098 27.2338 30.6958 27.5384 30.8227C27.8431 30.9496 28.1698 31.015 28.4998 31.015C28.8299 31.015 29.1566 30.9496 29.4613 30.8227C29.7659 30.6958 30.0424 30.5098 30.2748 30.2755C30.5092 30.0431 30.6952 29.7666 30.8221 29.4619C30.949 29.1573 31.0143 28.8305 31.0143 28.5005C31.0143 28.1704 30.949 27.8437 30.8221 27.539C30.6952 27.2344 30.5092 26.9579 30.2748 26.7255L19.5248 16.0005Z"/>
</svg>
