<svg fill="none" height="34" viewBox="0 0 60 34" width="60" xmlns="http://www.w3.org/2000/svg">
  <path
    d="M39.0449 17.1995C38.5324 17.2047 38.0286 17.0661 37.5909 16.7995C37.5005 17.6594 37.2498 18.4948 36.8519 19.2625C36.48 20.0405 35.9253 20.7169 35.2352 21.2339C34.5451 21.7509 33.74 22.0932 32.8889 22.2315C32.0573 22.3435 31.211 22.2529 30.4219 21.9675C29.6427 21.7044 28.9458 21.2425 28.3999 20.6275C27.9265 20.1098 27.5838 19.4865 27.4003 18.8095C27.2168 18.1324 27.1978 17.4213 27.3449 16.7355C27.4288 16.0713 27.6962 15.4436 28.1172 14.923C28.5382 14.4024 29.0959 14.0095 29.7279 13.7885C30.1829 13.6401 30.6636 13.5876 31.1399 13.6345C31.5936 13.68 32.0321 13.8226 32.4259 14.0525C32.832 14.2938 33.162 14.6445 33.3783 15.0644C33.5946 15.4844 33.6883 15.9567 33.6489 16.4275C33.6568 16.79 33.554 17.1463 33.3543 17.449C33.1545 17.7516 32.8673 17.9862 32.5309 18.1215C32.3043 18.2154 32.0564 18.2458 31.8139 18.2095C31.5858 18.195 31.3698 18.1017 31.2029 17.9455C31.0727 17.8448 30.9795 17.7039 30.9377 17.5448C30.8959 17.3856 30.908 17.2171 30.9719 17.0655C31.0017 16.9745 31.054 16.8926 31.1239 16.8272C31.1939 16.7618 31.2791 16.7151 31.3719 16.6915C31.4284 16.6704 31.4759 16.6306 31.5067 16.5788C31.5374 16.527 31.5495 16.4661 31.5409 16.4065C31.5276 16.2779 31.4731 16.157 31.3855 16.0618C31.298 15.9667 31.182 15.9024 31.0549 15.8785C30.8264 15.8451 30.5931 15.8755 30.3809 15.9665C30.1205 16.0786 29.8897 16.2498 29.7069 16.4665C29.4666 16.7862 29.3263 17.1699 29.3037 17.5693C29.2811 17.9686 29.3772 18.3657 29.5799 18.7105C29.7733 19.1567 30.0859 19.541 30.4833 19.8213C30.8807 20.1016 31.3477 20.2671 31.8329 20.2995C32.3733 20.3321 32.9141 20.2422 33.4149 20.0365C33.954 19.8062 34.4363 19.4608 34.8279 19.0245C35.3133 18.48 35.6513 17.8203 35.8099 17.1083C35.9685 16.3963 35.9423 15.6555 35.7339 14.9565C35.5768 14.2388 35.2602 13.5656 34.8078 12.9868C34.3553 12.4079 33.7784 11.9382 33.1199 11.6125C32.2431 11.1859 31.2676 11.0035 30.2959 11.0845C29.2835 11.1591 28.3055 11.4841 27.4499 12.0305C26.6714 12.5617 26.0178 13.2559 25.5343 14.0649C25.0508 14.8738 24.7491 15.7783 24.6499 16.7155C24.591 17.1084 24.5629 17.5052 24.5659 17.9025C24.5726 19.7667 25.2875 21.5586 26.5659 22.9155C27.8534 24.2573 29.5517 25.1314 31.3919 25.3995C31.8389 25.4611 32.2897 25.4905 32.7409 25.4875C32.9095 25.4784 33.0787 25.4858 33.2459 25.5095H33.3109C33.3993 25.5047 33.4869 25.5274 33.5619 25.5745C33.9429 25.6635 33.9429 25.7745 33.6479 25.8825C33.6022 25.9229 33.5488 25.9535 33.4908 25.9724C33.4328 25.9913 33.3716 25.9982 33.3109 25.9925L33.2459 26.0155C33.1538 26.0253 33.0624 26.04 32.9719 26.0595C32.5079 26.1035 31.6639 26.1695 31.4339 26.1695C29.5024 26.0971 27.6614 25.3318 26.2479 24.0135C25.0518 22.8884 24.1845 21.459 23.7389 19.8785C23.2824 18.315 23.2678 16.6557 23.6969 15.0845C24.1881 13.3672 25.252 11.8696 26.7119 10.8405C27.4824 10.252 28.372 9.83886 29.3187 9.62987C30.2654 9.42088 31.2463 9.42109 32.1929 9.63048C33.3826 9.89706 34.4808 10.4728 35.3769 11.2995C35.7899 11.6822 36.1588 12.1099 36.4769 12.5745C36.6838 12.1815 36.9775 11.8408 37.3356 11.5782C37.6937 11.3155 38.1069 11.1378 38.5439 11.0585C37.4817 9.6607 36.0819 8.55551 34.4759 7.84648C33.1459 7.71315 31.7962 7.64648 30.4269 7.64648C29.0569 7.64648 27.6859 7.71248 26.3579 7.84648C24.4543 8.71913 22.8441 10.1243 21.7219 11.8923C20.5996 13.6603 20.0134 15.7155 20.0339 17.8095C19.9788 20.5441 20.9801 23.1947 22.8294 25.2099C24.6787 27.2251 27.2336 28.4499 29.9629 28.6295H30.8899C33.6169 28.4488 36.1691 27.223 38.0148 25.2074C39.8605 23.1918 40.8574 20.5418 40.7979 17.8095C40.7979 17.4095 40.7769 17.0405 40.7559 16.6435C40.2594 17.0037 39.6613 17.1967 39.0479 17.1945"
    fill="white"/>
  <path
    d="M55.7828 15.418C55.4447 15.732 55.1762 16.1135 54.9946 16.5377C54.8131 16.9619 54.7225 17.4196 54.7288 17.881C54.7299 18.5733 54.9431 19.2486 55.3398 19.816C56.2849 19.0209 57.1598 18.146 57.9548 17.201C57.2747 16.5557 56.5488 15.9605 55.7828 15.42"
    fill="white"/>
  <path
    d="M30 0C23.965 0.0414037 18.0409 1.625 12.7902 4.60038C7.53955 7.57576 3.13674 11.8441 0 17C3.13674 22.1559 7.53955 26.4242 12.7902 29.3996C18.0409 32.375 23.965 33.9586 30 34C36.0355 33.9615 41.9608 32.3792 47.212 29.4035C52.4632 26.4279 56.8655 22.1579 60 17C56.8653 11.8423 52.4629 7.57248 47.2118 4.59685C41.9607 1.62121 36.0355 0.0387427 30 0V0ZM30.422 29.535C18.468 29.535 7.947 24.587 1.855 17.109C8.56 10.8 18.848 6.751 30.422 6.751C41.975 6.751 52.284 10.799 58.988 17.11C52.875 24.587 42.376 29.536 30.422 29.536"
    fill="white"/>
</svg>
