<svg fill="none" height="60" viewBox="0 0 47 60" width="47" xmlns="http://www.w3.org/2000/svg">
  <path
    d="M25.075 17.1054L26.492 15.8714L27.682 16.9914C27.7646 17.0655 27.8728 17.1045 27.9836 17.1002C28.0945 17.0959 28.1994 17.0486 28.276 16.9684L29.602 15.7334L30.654 16.8544C30.6897 16.894 30.733 16.9261 30.7812 16.9488C30.8295 16.9715 30.8819 16.9842 30.9351 16.9864C30.9884 16.9885 31.0416 16.98 31.0916 16.9613C31.1415 16.9426 31.1872 16.9141 31.226 16.8774L32.964 15.5504C33.0088 15.5168 33.0462 15.4745 33.0741 15.426C33.102 15.3775 33.1197 15.3238 33.1262 15.2682C33.1326 15.2126 33.1277 15.1563 33.1117 15.1027C33.0957 15.0491 33.0689 14.9993 33.033 14.9564C33.002 14.9116 32.9619 14.8738 32.9152 14.8457C32.8686 14.8176 32.8164 14.7997 32.7623 14.7933C32.7082 14.7868 32.6534 14.792 32.6014 14.8084C32.5495 14.8248 32.5016 14.8521 32.461 14.8884L30.998 15.9884L29.942 14.8634C29.9054 14.8212 29.8606 14.787 29.8103 14.7628C29.76 14.7387 29.7052 14.7251 29.6495 14.723C29.5937 14.7208 29.5381 14.7301 29.4861 14.7503C29.434 14.7705 29.3867 14.8012 29.347 14.8404L27.975 16.0974L26.786 14.9974C26.7079 14.9258 26.6059 14.886 26.5 14.886C26.3941 14.886 26.292 14.9258 26.214 14.9974L24.523 16.4834C24.4814 16.5192 24.4474 16.5628 24.4229 16.6118C24.3984 16.6609 24.3839 16.7143 24.3803 16.769C24.3767 16.8237 24.384 16.8785 24.4017 16.9304C24.4195 16.9822 24.4474 17.03 24.4839 17.071C24.5203 17.1119 24.5645 17.1452 24.6139 17.1689C24.6634 17.1926 24.717 17.2062 24.7718 17.2089C24.8265 17.2117 24.8812 17.2035 24.9328 17.1848C24.9843 17.1662 25.0316 17.1375 25.072 17.1004L25.075 17.1054Z"
    fill="#141515"/>
  <path
    d="M31.3618 22.3418H27.7727C27.6586 22.3458 27.5503 22.3929 27.4696 22.4736C27.3888 22.5543 27.3417 22.6627 27.3377 22.7768C27.3424 22.8886 27.3905 22.9941 27.4717 23.071C27.5529 23.1479 27.6609 23.1902 27.7727 23.1888H30.3788L27.8177 25.7728L26.9727 24.9048C26.8885 24.8272 26.7783 24.7841 26.6638 24.7841C26.5493 24.7841 26.4389 24.8272 26.3547 24.9048C26.2781 24.9847 26.2353 25.0911 26.2353 25.2018C26.2353 25.3125 26.2781 25.4189 26.3547 25.4988L27.2238 26.3678L25.8068 27.7678C25.7297 27.8474 25.6865 27.9539 25.6865 28.0648C25.6865 28.1757 25.7297 28.2822 25.8068 28.3618C25.8434 28.4048 25.8889 28.4394 25.9402 28.4631C25.9914 28.4867 26.0473 28.499 26.1038 28.499C26.1602 28.499 26.2161 28.4867 26.2673 28.4631C26.3186 28.4394 26.3641 28.4048 26.4008 28.3618L27.8177 26.9618L28.6638 27.8078C28.7437 27.8847 28.8503 27.9277 28.9612 27.9277C29.0722 27.9277 29.1788 27.8847 29.2588 27.8078C29.3016 27.7711 29.336 27.7255 29.3596 27.6743C29.3832 27.623 29.3954 27.5672 29.3954 27.5108C29.3954 27.4543 29.3832 27.3986 29.3596 27.3473C29.336 27.2961 29.3016 27.2505 29.2588 27.2138L28.4128 26.3678L30.9738 23.7828V26.4128C30.9784 26.5246 31.0265 26.6301 31.1077 26.707C31.1889 26.784 31.2969 26.8262 31.4088 26.8248C31.4629 26.8249 31.5165 26.8144 31.5666 26.7937C31.6166 26.7731 31.6621 26.7427 31.7004 26.7044C31.7387 26.6661 31.769 26.6207 31.7896 26.5706C31.8103 26.5206 31.8209 26.4669 31.8207 26.4128V22.7758C31.827 22.7202 31.8198 22.664 31.7998 22.6118C31.7798 22.5596 31.7475 22.5129 31.7057 22.4758C31.6124 22.3889 31.4893 22.341 31.3618 22.3418Z"
    fill="#141515"/>
  <path
    d="M25.0751 18.7744L26.4921 17.5394L27.6821 18.6395C27.7647 18.7135 27.8729 18.7526 27.9837 18.7483C28.0946 18.744 28.1995 18.6967 28.2761 18.6164L29.6021 17.3814L30.6541 18.5015C30.7263 18.5794 30.8252 18.6274 30.9311 18.6359C31.0371 18.6444 31.1423 18.6129 31.2261 18.5474L32.9641 17.1994C33.0099 17.166 33.0483 17.1234 33.0768 17.0744C33.1054 17.0253 33.1234 16.9709 33.1299 16.9145C33.1364 16.8582 33.1311 16.8011 33.1145 16.7468C33.0978 16.6926 33.0701 16.6424 33.0331 16.5994C33.0006 16.5566 32.9598 16.5207 32.9132 16.494C32.8665 16.4673 32.8149 16.4502 32.7615 16.4439C32.7082 16.4375 32.654 16.442 32.6024 16.457C32.5508 16.4721 32.5027 16.4974 32.4611 16.5314L30.9981 17.6525L29.9461 16.5084C29.869 16.4286 29.7641 16.3816 29.6532 16.3773C29.5423 16.373 29.4341 16.4117 29.3511 16.4854L27.9791 17.7434L26.7901 16.6434C26.7096 16.577 26.6085 16.5406 26.5041 16.5406C26.3997 16.5406 26.2986 16.577 26.2181 16.6434L24.5271 18.1304C24.4823 18.1656 24.4451 18.2095 24.4177 18.2594C24.3903 18.3094 24.3733 18.3644 24.3677 18.421C24.3622 18.4777 24.3681 18.5349 24.3853 18.5892C24.4024 18.6436 24.4303 18.6938 24.4674 18.7371C24.5045 18.7803 24.55 18.8156 24.6011 18.8408C24.6521 18.866 24.7078 18.8806 24.7646 18.8837C24.8215 18.8868 24.8784 18.8784 24.932 18.8589C24.9855 18.8395 25.0345 18.8094 25.0761 18.7704L25.0751 18.7744Z"
    fill="#141515"/>
  <path
    d="M16.9358 19.3248C16.8455 19.3857 16.7813 19.4783 16.7559 19.5842C16.7306 19.6901 16.7458 19.8016 16.7987 19.8968C16.8572 19.9958 16.9521 20.068 17.0632 20.0979C17.1742 20.1278 17.2925 20.1131 17.3928 20.0568C17.73 19.8413 18.0906 19.6648 18.4678 19.5308C18.5493 19.5327 18.6294 19.509 18.6968 19.4628C19.1248 19.3253 19.5735 19.2634 20.0227 19.2798C20.4949 19.2808 20.9644 19.3498 21.4168 19.4848C21.4628 19.5078 21.4858 19.5308 21.5308 19.5308C21.9305 19.6631 22.3142 19.8395 22.6748 20.0568C22.7228 20.0854 22.7759 20.1042 22.8312 20.1123C22.8865 20.1203 22.9428 20.1173 22.9969 20.1036C23.051 20.0898 23.102 20.0656 23.1467 20.0321C23.1915 19.9987 23.2292 19.9568 23.2578 19.9088C23.2863 19.8608 23.3052 19.8077 23.3132 19.7524C23.3212 19.6971 23.3183 19.6408 23.3045 19.5867C23.2908 19.5325 23.2665 19.4817 23.2331 19.4369C23.1997 19.3921 23.1578 19.3544 23.1098 19.3258C22.7569 19.123 22.3892 18.9471 22.0097 18.7998V14.7998C22.3894 14.653 22.7571 14.4771 23.1098 14.2738C23.2038 14.2164 23.2725 14.1253 23.302 14.0192C23.3315 13.913 23.3196 13.7996 23.2687 13.7018C23.2099 13.6032 23.115 13.5314 23.0042 13.5015C22.8933 13.4717 22.7752 13.4861 22.6748 13.5418C22.3146 13.76 21.9308 13.9365 21.5308 14.0678C21.4858 14.0678 21.4628 14.0908 21.4168 14.1138C20.9644 14.2491 20.4949 14.3185 20.0227 14.3198C19.5734 14.3359 19.1247 14.2737 18.6968 14.1358C18.6294 14.0897 18.5493 14.0659 18.4678 14.0678C18.0903 13.9347 17.7295 13.7582 17.3928 13.5418C17.2924 13.4861 17.1742 13.4717 17.0634 13.5015C16.9525 13.5314 16.8576 13.6032 16.7987 13.7018C16.7456 13.797 16.7302 13.9086 16.7556 14.0146C16.781 14.1205 16.8453 14.2131 16.9358 14.2738C17.2833 14.4866 17.6519 14.6629 18.0357 14.7998V18.7998C17.6521 18.9369 17.2836 19.1128 16.9358 19.3248ZM18.8788 15.0488C19.2544 15.1308 19.6383 15.169 20.0227 15.1628C20.4064 15.16 20.7891 15.1218 21.1658 15.0488V18.5488C20.7891 18.4759 20.4064 18.4377 20.0227 18.4348C19.6383 18.4286 19.2544 18.4669 18.8788 18.5488V15.0488Z"
    fill="#141515"/>
  <path
    d="M45.6509 4.25426H45.3999V56.5762C45.3965 56.8603 45.2822 57.1318 45.0813 57.3327C44.8804 57.5335 44.609 57.6479 44.3249 57.6513H3.44793C3.33965 57.6517 3.23238 57.6306 3.13228 57.5893C3.03219 57.5481 2.94125 57.4874 2.86474 57.4108C2.78822 57.3341 2.72764 57.2431 2.68648 57.143C2.64532 57.0428 2.6244 56.9355 2.62493 56.8273V54.7923H2.64791L7.05993 54.7463H43.3599C43.5358 54.7485 43.7105 54.7159 43.8737 54.6503C44.037 54.5846 44.1856 54.4873 44.311 54.3639C44.4365 54.2406 44.5362 54.0936 44.6045 53.9314C44.6728 53.7693 44.7083 53.5952 44.7089 53.4193V1.32726C44.7083 1.15132 44.6728 0.977254 44.6045 0.815109C44.5362 0.652965 44.4365 0.505965 44.311 0.382584C44.1856 0.259202 44.037 0.161888 43.8737 0.0962677C43.7105 0.0306479 43.5358 -0.00198725 43.3599 0.000259423H2.98992C2.47518 -0.00811517 1.97784 0.186559 1.60558 0.54216C1.23332 0.897761 1.01612 1.38567 1.00094 1.90025V56.8522C0.975674 57.1273 1.00851 57.4046 1.09734 57.6661C1.18618 57.9276 1.329 58.1675 1.51656 58.3703C1.70412 58.573 1.93223 58.734 2.18606 58.8429C2.43988 58.9518 2.71375 59.0061 2.98992 59.0023H45.6509C46.0052 59.0031 46.3454 58.8642 46.5979 58.6158C46.8505 58.3674 46.9949 58.0294 46.9999 57.6752V5.57927C46.9944 5.22542 46.8498 4.88798 46.5973 4.64C46.3448 4.39202 46.0048 4.25343 45.6509 4.25426ZM35.7069 46.8113H13.5069C13.3312 46.8161 13.1564 46.7857 12.9927 46.7218C12.8289 46.6579 12.6797 46.5619 12.5537 46.4393C12.4278 46.3168 12.3276 46.1702 12.2593 46.0083C12.1909 45.8465 12.1557 45.6725 12.1557 45.4967C12.1557 45.321 12.1909 45.147 12.2593 44.9852C12.3276 44.8233 12.4278 44.6767 12.5537 44.5542C12.6797 44.4316 12.8289 44.3356 12.9927 44.2717C13.1564 44.2078 13.3312 44.1774 13.5069 44.1823H35.7069C35.8826 44.1774 36.0575 44.2078 36.2212 44.2717C36.3849 44.3356 36.5341 44.4316 36.6601 44.5542C36.7861 44.6767 36.8862 44.8233 36.9546 44.9852C37.0229 45.147 37.0582 45.321 37.0582 45.4967C37.0582 45.6725 37.0229 45.8465 36.9546 46.0083C36.8862 46.1702 36.7861 46.3168 36.6601 46.4393C36.5341 46.5619 36.3849 46.6579 36.2212 46.7218C36.0575 46.7857 35.8826 46.8161 35.7069 46.8113ZM18.1069 39.4713C18.1072 39.1196 18.2469 38.7824 18.4955 38.5336C18.7441 38.2848 19.0812 38.1448 19.4329 38.1443H29.7899C30.1354 38.1538 30.4636 38.2977 30.7046 38.5454C30.9456 38.7931 31.0805 39.1251 31.0805 39.4707C31.0805 39.8164 30.9456 40.1484 30.7046 40.3961C30.4636 40.6439 30.1354 40.7878 29.7899 40.7973H19.4279C19.0761 40.797 18.7389 40.6571 18.4902 40.4082C18.2416 40.1594 18.1019 39.822 18.1019 39.4703L18.1069 39.4713ZM24.5999 8.43925C27.0811 8.43629 29.5074 9.1692 31.572 10.5453C33.6366 11.9214 35.2468 13.8789 36.1988 16.1702C37.1508 18.4615 37.4019 20.9836 36.9204 23.4176C36.4389 25.8516 35.2464 28.0881 33.4937 29.8443C31.741 31.6006 29.5068 32.7975 27.0738 33.2839C24.6407 33.7702 22.1181 33.5242 19.8249 32.5767C17.5318 31.6293 15.5711 30.023 14.1909 27.9612C12.8107 25.8993 12.0729 23.4745 12.0709 20.9933C12.072 17.669 13.391 14.4807 15.7388 12.1273C18.0866 9.77387 21.2716 8.44725 24.5959 8.43825L24.5999 8.43925ZM4.49993 0.778275H5.93993V53.9693H4.49993V0.778275Z"
    fill="#141515"/>
  <path
    d="M16.6159 25.498C16.6702 25.4895 16.7223 25.4704 16.7691 25.4415C16.8159 25.4127 16.8565 25.3748 16.8885 25.3301C16.9206 25.2855 16.9434 25.2349 16.9556 25.1813C16.9679 25.1277 16.9693 25.0722 16.9599 25.018C16.8944 24.7654 16.885 24.5014 16.9323 24.2447C16.9797 23.988 17.0826 23.7447 17.2339 23.532C17.3381 23.3935 17.4812 23.289 17.6449 23.232C17.8083 23.1908 17.9784 23.183 18.1449 23.209C18.3359 23.2639 18.5127 23.3599 18.6626 23.4903C18.8126 23.6208 18.9321 23.7824 19.0129 23.964C19.2873 24.5657 19.4648 25.2069 19.5389 25.864C19.6008 26.594 19.6161 27.3271 19.5849 28.059C19.5835 28.1709 19.6258 28.2789 19.7027 28.3601C19.7796 28.4413 19.8851 28.4893 19.9969 28.494H20.0649C20.1196 28.4927 20.1734 28.4803 20.2231 28.4573C20.2727 28.4344 20.3172 28.4016 20.3536 28.3608C20.3901 28.32 20.4178 28.2722 20.435 28.2203C20.4523 28.1684 20.4587 28.1135 20.4539 28.059C20.4196 27.3267 20.4427 26.5928 20.5229 25.864C20.575 25.2029 20.7536 24.5579 21.0489 23.964C21.1238 23.7785 21.2416 23.6133 21.3926 23.4821C21.5437 23.3508 21.7237 23.2573 21.9179 23.209C22.0777 23.1825 22.2414 23.1903 22.3979 23.232C22.5688 23.2879 22.7199 23.3921 22.8329 23.532C22.9796 23.7469 23.0781 23.991 23.1214 24.2475C23.1647 24.504 23.1519 24.7669 23.0839 25.018C23.0744 25.1292 23.1065 25.24 23.1742 25.3287C23.2419 25.4174 23.3402 25.4778 23.4499 25.498C23.5586 25.5126 23.6689 25.4853 23.7582 25.4216C23.8476 25.3579 23.9093 25.2626 23.9309 25.155C24.0177 24.7815 24.0217 24.3935 23.9426 24.0183C23.8635 23.6431 23.7032 23.2897 23.4729 22.983C23.266 22.7253 22.9878 22.5344 22.6729 22.434C22.3699 22.3379 22.0471 22.3217 21.7359 22.387C21.4203 22.4608 21.1261 22.6067 20.8763 22.8131C20.6265 23.0196 20.4278 23.281 20.2959 23.577C20.1908 23.7842 20.0993 23.998 20.0219 24.217C19.9518 23.9987 19.8679 23.7849 19.7709 23.577C19.6328 23.2851 19.4321 23.0271 19.1831 22.8214C18.934 22.6157 18.6427 22.4674 18.3299 22.387C18.0187 22.3217 17.696 22.3379 17.3929 22.434C17.0728 22.5233 16.7914 22.7165 16.5929 22.983C16.3576 23.287 16.1942 23.6404 16.1151 24.0166C16.0359 24.3928 16.043 24.782 16.1359 25.155C16.1543 25.2641 16.2151 25.3614 16.3051 25.4257C16.395 25.4899 16.5068 25.516 16.6159 25.498Z"
    fill="#141515"/>
  <path
    d="M14.8101 59.0003H2.99005C2.71376 59.0044 2.4397 58.9503 2.18568 58.8416C1.93166 58.7328 1.70337 58.5718 1.51567 58.369C1.32797 58.1662 1.18506 57.9262 1.09623 57.6645C1.00739 57.4029 0.974625 57.1254 1.00006 56.8503V1.90027C1.01524 1.38551 1.23261 0.89747 1.60508 0.541841C1.97756 0.186212 2.47514 -0.00836441 2.99005 0.000275933H43.3651C43.541 -0.00197074 43.7156 0.0306644 43.8789 0.0962842C44.0421 0.161904 44.1907 0.259218 44.3162 0.3826C44.4416 0.505982 44.5413 0.652981 44.6096 0.815126C44.6779 0.97727 44.7134 1.15133 44.7141 1.32727V53.4203C44.7134 53.5962 44.6779 53.7703 44.6096 53.9324C44.5413 54.0946 44.4416 54.2416 44.3162 54.365C44.1907 54.4883 44.0421 54.5857 43.8789 54.6513C43.7156 54.7169 43.541 54.7495 43.3651 54.7473H7.06005L2.64706 54.7933H2.62506V56.8283C2.62453 56.9366 2.64545 57.0439 2.68661 57.144C2.72777 57.2442 2.78835 57.3351 2.86486 57.4117C2.94138 57.4883 3.03231 57.549 3.1324 57.5903C3.2325 57.6316 3.33978 57.6527 3.44805 57.6523H44.3261C44.6101 57.6489 44.8816 57.5346 45.0825 57.3337C45.2833 57.1328 45.3977 56.8613 45.4011 56.5773V4.25427H45.6521C46.0059 4.25371 46.3458 4.39255 46.5981 4.64072C46.8504 4.88889 46.9948 5.22641 47.0001 5.58026V57.6733C46.9951 58.0275 46.8506 58.3654 46.5981 58.6138C46.3456 58.8622 46.0053 59.0011 45.6511 59.0003H14.8101ZM4.50006 53.9693H5.94006V0.777284H4.50006V53.9693ZM12.1811 45.5083C12.1871 45.8558 12.3297 46.1871 12.578 46.4304C12.8263 46.6736 13.1604 46.8094 13.5081 46.8083H35.7081C36.0568 46.8083 36.3913 46.6697 36.6379 46.4231C36.8845 46.1765 37.0231 45.842 37.0231 45.4933C37.0231 45.1445 36.8845 44.81 36.6379 44.5634C36.3913 44.3168 36.0568 44.1783 35.7081 44.1783H13.5081C13.3335 44.1783 13.1606 44.2127 12.9994 44.2795C12.8381 44.3464 12.6917 44.4444 12.5683 44.5679C12.445 44.6915 12.3472 44.8381 12.2806 44.9995C12.2139 45.1608 12.1798 45.3337 12.1801 45.5083H12.1811ZM18.1031 39.4713C18.1033 39.823 18.2431 40.1602 18.4917 40.409C18.7403 40.6577 19.0774 40.7977 19.4291 40.7983H29.7861C30.1316 40.7888 30.4597 40.6449 30.7008 40.3971C30.9418 40.1494 31.0766 39.8174 31.0766 39.4718C31.0766 39.1261 30.9418 38.7942 30.7008 38.5464C30.4597 38.2987 30.1316 38.1548 29.7861 38.1453H19.4271C19.0754 38.1455 18.7381 38.2853 18.4894 38.5339C18.2406 38.7825 18.1006 39.1196 18.1001 39.4713H18.1031ZM12.0671 20.9933C12.0698 23.4734 12.8079 25.897 14.188 27.9577C15.568 30.0184 17.5281 31.6236 19.8204 32.5704C22.1126 33.5173 24.6342 33.7631 27.0662 33.277C29.4982 32.7909 31.7315 31.5946 33.4836 29.8393C35.2358 28.0841 36.4282 25.8487 36.9101 23.4159C37.3919 20.983 37.1416 18.4619 36.1908 16.1713C35.2399 13.8807 33.6313 11.9234 31.5682 10.547C29.5051 9.17052 27.0802 8.43668 24.6001 8.43826C22.9523 8.43839 21.3207 8.76338 19.7986 9.39462C18.2766 10.0259 16.8939 10.951 15.7297 12.1171C14.5655 13.2831 13.6426 14.6673 13.0138 16.1903C12.3849 17.7134 12.0626 19.3455 12.0651 20.9933H12.0671ZM25.8081 28.3573C25.731 28.2776 25.6878 28.1711 25.6878 28.0603C25.6878 27.9494 25.731 27.8429 25.8081 27.7633L27.2261 26.3683L26.3571 25.4993C26.2804 25.4194 26.2376 25.313 26.2376 25.2023C26.2376 25.0916 26.2804 24.9852 26.3571 24.9053C26.4413 24.8277 26.5516 24.7846 26.6661 24.7846C26.7806 24.7846 26.8909 24.8277 26.9751 24.9053L27.8201 25.7723L30.3811 23.1893H27.7731C27.6613 23.1909 27.5533 23.1489 27.4721 23.0721C27.3908 22.9954 27.3427 22.89 27.3381 22.7783C27.3418 22.664 27.3888 22.5554 27.4695 22.4745C27.5503 22.3935 27.6588 22.3463 27.7731 22.3423H31.3621C31.4896 22.3433 31.612 22.393 31.7041 22.4813C31.746 22.5183 31.7783 22.5649 31.7984 22.6172C31.8184 22.6694 31.8255 22.7257 31.8191 22.7813V26.4173C31.8193 26.4714 31.8089 26.525 31.7883 26.575C31.7678 26.6251 31.7375 26.6705 31.6993 26.7088C31.6611 26.7471 31.6157 26.7775 31.5657 26.7982C31.5157 26.8188 31.4621 26.8294 31.4081 26.8293C31.2962 26.8307 31.1882 26.7884 31.107 26.7115C31.0258 26.6346 30.9777 26.529 30.9731 26.4173V23.7873L28.4121 26.3723L29.2581 27.2183C29.3008 27.2552 29.3351 27.3008 29.3586 27.3522C29.3821 27.4035 29.3943 27.4593 29.3943 27.5158C29.3943 27.5722 29.3821 27.628 29.3586 27.6794C29.3351 27.7307 29.3008 27.7764 29.2581 27.8133C29.178 27.89 29.0714 27.9328 28.9606 27.9328C28.8497 27.9328 28.7431 27.89 28.6631 27.8133L27.8171 26.9663L26.4001 28.3573C26.3634 28.4001 26.3178 28.4346 26.2665 28.4582C26.2153 28.4818 26.1595 28.494 26.1031 28.494C26.0466 28.494 25.9909 28.4818 25.9396 28.4582C25.8883 28.4346 25.8428 28.4001 25.8061 28.3573H25.8081ZM20.0241 28.4943H20.0001C19.8883 28.4896 19.7828 28.4416 19.7058 28.3604C19.6289 28.2791 19.5867 28.1711 19.5881 28.0593C19.6195 27.3277 19.6042 26.5949 19.5421 25.8653C19.4681 25.2081 19.2906 24.5669 19.0161 23.9653C18.9352 23.7837 18.8156 23.6221 18.6657 23.4916C18.5157 23.3612 18.3391 23.2652 18.1481 23.2103C17.9816 23.1838 17.8114 23.1917 17.6481 23.2333C17.4848 23.2906 17.3421 23.395 17.2381 23.5333C17.0867 23.746 16.9838 23.9892 16.9365 24.2459C16.8891 24.5027 16.8985 24.7666 16.9641 25.0193C16.9824 25.1284 16.9566 25.2403 16.8923 25.3304C16.8281 25.4206 16.7307 25.4815 16.6216 25.4998C16.5124 25.5181 16.4005 25.4923 16.3104 25.428C16.2203 25.3638 16.1594 25.2664 16.1411 25.1573C16.048 24.7842 16.0407 24.3948 16.1197 24.0184C16.1987 23.6421 16.3619 23.2885 16.5971 22.9843C16.7957 22.7181 17.0771 22.5253 17.3971 22.4363C17.7004 22.3396 18.0235 22.3231 18.3351 22.3883C18.648 22.4688 18.9393 22.6172 19.1884 22.8231C19.4374 23.0289 19.6381 23.2871 19.7761 23.5793C19.873 23.7872 19.9568 24.0009 20.0271 24.2193C20.1042 24.0001 20.1957 23.7863 20.3011 23.5793C20.4329 23.2831 20.6315 23.0214 20.8813 22.8148C21.1311 22.6082 21.4254 22.4622 21.7411 22.3883C22.0526 22.323 22.3758 22.3396 22.6791 22.4363C22.9937 22.5365 23.2719 22.7271 23.4791 22.9843C23.7091 23.2912 23.8692 23.6448 23.9481 24.0202C24.0271 24.3956 24.023 24.7837 23.9361 25.1573C23.9144 25.2649 23.8527 25.3602 23.7634 25.4239C23.674 25.4876 23.5638 25.5149 23.4551 25.5003C23.3453 25.4798 23.2471 25.4192 23.1796 25.3303C23.1121 25.2414 23.0802 25.1305 23.0901 25.0193C23.1581 24.7682 23.1709 24.5053 23.1276 24.2488C23.0842 23.9922 22.9858 23.7481 22.8391 23.5333C22.7259 23.3936 22.5749 23.2894 22.4041 23.2333C22.2476 23.1911 22.0838 23.1832 21.9241 23.2103C21.7298 23.2584 21.5498 23.3519 21.3987 23.4832C21.2476 23.6144 21.1299 23.7797 21.0551 23.9653C20.7593 24.5589 20.5807 25.204 20.5291 25.8653C20.4483 26.5936 20.4252 27.3273 20.4601 28.0593C20.4649 28.1137 20.4584 28.1687 20.4412 28.2206C20.4239 28.2725 20.3962 28.3203 20.3598 28.361C20.3233 28.4018 20.2789 28.4347 20.2292 28.4576C20.1796 28.4805 20.1257 28.493 20.0711 28.4943H20.0241ZM22.6761 20.0563C22.3153 19.8389 21.9317 19.6622 21.5321 19.5293C21.4871 19.5293 21.4641 19.5073 21.4181 19.4833C20.9656 19.3487 20.4961 19.2797 20.0241 19.2783C19.5747 19.2619 19.126 19.3242 18.6981 19.4623C18.6306 19.5081 18.5506 19.5319 18.4691 19.5303C18.092 19.6648 17.7313 19.8416 17.3941 20.0573C17.2938 20.1135 17.1755 20.1282 17.0644 20.0983C16.9534 20.0684 16.8585 19.9963 16.8001 19.8973C16.747 19.802 16.7318 19.6903 16.7573 19.5843C16.7829 19.4783 16.8474 19.3859 16.9381 19.3253C17.2859 19.1131 17.6545 18.9368 18.0381 18.7993V14.7993C17.6542 14.6625 17.2856 14.4862 16.9381 14.2733C16.8476 14.2125 16.7832 14.1201 16.7577 14.0142C16.7321 13.9082 16.7472 13.7966 16.8001 13.7013C16.8592 13.603 16.9542 13.5316 17.065 13.5019C17.1758 13.4723 17.2937 13.4867 17.3941 13.5423C17.7305 13.7594 18.0913 13.9363 18.4691 14.0693C18.5505 14.0681 18.6304 14.0918 18.6981 14.1373C19.126 14.2753 19.5747 14.3376 20.0241 14.3213C20.4963 14.3201 20.9658 14.2503 21.4181 14.1143C21.4641 14.0923 21.4871 14.0693 21.5321 14.0693C21.9323 13.9379 22.3161 13.7611 22.6761 13.5423C22.7762 13.4865 22.8941 13.472 23.0048 13.5016C23.1155 13.5313 23.2102 13.6029 23.2691 13.7013C23.3198 13.7989 23.3317 13.9122 23.3024 14.0183C23.2731 14.1244 23.2047 14.2155 23.1111 14.2733C22.7585 14.4766 22.3907 14.6525 22.0111 14.7993V18.7993C22.3904 18.9468 22.7581 19.1226 23.1111 19.3253C23.2047 19.3831 23.2731 19.4742 23.3024 19.5803C23.3317 19.6864 23.3198 19.7996 23.2691 19.8973C23.2311 19.9638 23.1761 20.0189 23.1096 20.0569C23.0431 20.0949 22.9676 20.1144 22.8911 20.1133C22.8153 20.1129 22.7408 20.0929 22.6751 20.0553L22.6761 20.0563ZM21.1671 18.5473V15.0473C20.7904 15.1202 20.4077 15.1584 20.0241 15.1613C19.6396 15.1673 19.2558 15.129 18.8801 15.0473V18.5473C19.2558 18.4655 19.6396 18.4273 20.0241 18.4333C20.407 18.436 20.789 18.4738 21.1651 18.5463L21.1671 18.5473ZM24.4821 18.7313C24.4111 18.6457 24.3762 18.5358 24.3847 18.425C24.3933 18.3141 24.4447 18.2109 24.5281 18.1373L26.2201 16.6493C26.3005 16.5828 26.4017 16.5464 26.5061 16.5464C26.6104 16.5464 26.7116 16.5828 26.7921 16.6493L27.9811 17.7493L29.3531 16.4923C29.4358 16.4182 29.544 16.3791 29.655 16.3832C29.766 16.3873 29.871 16.4343 29.9481 16.5143L31.0001 17.6553L32.4631 16.5343C32.5047 16.5002 32.5527 16.4749 32.6044 16.4599C32.656 16.4449 32.7101 16.4404 32.7635 16.4467C32.8169 16.4531 32.8685 16.4701 32.9151 16.4968C32.9618 16.5236 33.0026 16.5594 33.0351 16.6023C33.0718 16.6454 33.0993 16.6956 33.1158 16.7498C33.1323 16.804 33.1374 16.861 33.131 16.9173C33.1245 16.9735 33.1065 17.0279 33.0781 17.0769C33.0498 17.1259 33.0116 17.1686 32.9661 17.2023L31.2281 18.5503C31.1442 18.6156 31.0388 18.647 30.9329 18.6383C30.827 18.6296 30.7282 18.5814 30.6561 18.5033L29.6041 17.3833L28.2781 18.6193C28.2014 18.6995 28.0966 18.7468 27.9857 18.7511C27.8748 18.7554 27.7666 18.7164 27.6841 18.6423L26.4941 17.5423L25.0771 18.7793C24.9909 18.8494 24.8811 18.8837 24.7704 18.8752C24.6596 18.8666 24.5564 18.8158 24.4821 18.7333V18.7313ZM24.4821 17.0843C24.4106 16.9989 24.3753 16.8889 24.3839 16.7779C24.3925 16.6669 24.4443 16.5636 24.5281 16.4903L26.2181 15.0003C26.2961 14.9287 26.3981 14.8889 26.5041 14.8889C26.61 14.8889 26.712 14.9287 26.7901 15.0003L27.9791 16.1003L29.3511 14.8443C29.3906 14.8049 29.4379 14.774 29.4899 14.7536C29.5419 14.7333 29.5975 14.7238 29.6533 14.7259C29.7092 14.728 29.7639 14.7415 29.8143 14.7656C29.8647 14.7898 29.9095 14.824 29.9461 14.8663L30.9971 15.9863L32.4601 14.8863C32.5007 14.8501 32.5486 14.823 32.6006 14.8067C32.6525 14.7904 32.7073 14.7852 32.7613 14.7917C32.8154 14.7981 32.8675 14.8159 32.9141 14.8439C32.9608 14.872 33.001 14.9096 33.0321 14.9543C33.0678 14.9974 33.0945 15.0472 33.1105 15.1009C33.1264 15.1546 33.1313 15.2109 33.1249 15.2665C33.1184 15.3222 33.1008 15.3759 33.0729 15.4245C33.0451 15.4731 33.0077 15.5156 32.9631 15.5493L31.2251 16.8763C31.1863 16.9129 31.1406 16.9414 31.0906 16.9601C31.0407 16.9789 30.9875 16.9874 30.9342 16.9853C30.8809 16.9831 30.8286 16.9703 30.7803 16.9477C30.732 16.925 30.6888 16.8929 30.6531 16.8533L29.6011 15.7333L28.2751 16.9673C28.1987 17.048 28.0938 17.0956 27.9827 17.0999C27.8717 17.1042 27.7634 17.0648 27.6811 16.9903L26.4911 15.8703L25.0741 17.1043C25.0378 17.14 24.9948 17.168 24.9476 17.1869C24.9004 17.2058 24.8499 17.2151 24.7991 17.2143C24.6797 17.2141 24.5651 17.1671 24.4801 17.0833L24.4821 17.0843Z"
    fill="white"/>
</svg>
