<svg fill="none" height="58" viewBox="0 0 43 58" width="43" xmlns="http://www.w3.org/2000/svg">
  <path
    d="M21.5 58H0C1.477 48.529 3.819 48.38 8.271 47.78C11.415 47.33 13.165 47.094 14.242 46.301C14.3895 46.6092 14.644 46.8533 14.958 46.988C14.9604 47.2716 15.0455 47.5483 15.2029 47.7841C15.3603 48.02 15.5831 48.2049 15.844 48.316C19.473 56.437 23.525 56.437 27.174 48.316C27.4352 48.2051 27.6582 48.0204 27.8158 47.7845C27.9734 47.5485 28.0586 47.2717 28.061 46.988C28.3795 46.8598 28.6363 46.6137 28.778 46.301C29.854 47.094 31.605 47.351 34.749 47.78C39.2 48.38 41.543 48.53 42.998 58H21.5ZM20.3 51.551C20.3018 51.3109 20.3748 51.0768 20.5097 50.8782C20.6447 50.6797 20.8355 50.5256 21.0581 50.4356C21.2806 50.3456 21.5249 50.3236 21.7599 50.3725C21.995 50.4213 22.2102 50.5389 22.3784 50.7102C22.5466 50.8815 22.6602 51.0988 22.7048 51.3347C22.7495 51.5706 22.7231 51.8144 22.629 52.0353C22.5349 52.2562 22.3774 52.4442 22.1765 52.5755C21.9755 52.7068 21.7401 52.7756 21.5 52.773C21.341 52.7716 21.1838 52.7388 21.0374 52.6766C20.891 52.6144 20.7583 52.524 20.6469 52.4106C20.5355 52.2971 20.4475 52.1628 20.388 52.0153C20.3284 51.8678 20.2986 51.71 20.3 51.551ZM22.473 50.501C22.473 50.3971 22.4935 50.2943 22.5332 50.1983C22.573 50.1023 22.6312 50.0151 22.7047 49.9417C22.7781 49.8682 22.8653 49.81 22.9613 49.7702C23.0573 49.7304 23.1601 49.71 23.264 49.71C23.3679 49.71 23.4707 49.7304 23.5667 49.7702C23.6627 49.81 23.7499 49.8682 23.8233 49.9417C23.8968 50.0151 23.955 50.1023 23.9948 50.1983C24.0345 50.2943 24.055 50.3971 24.055 50.501C24.055 50.6049 24.0345 50.7077 23.9948 50.8037C23.955 50.8997 23.8968 50.9869 23.8233 51.0603C23.7499 51.1338 23.6627 51.192 23.5667 51.2318C23.4707 51.2715 23.3679 51.292 23.264 51.292C23.1601 51.292 23.0573 51.2715 22.9613 51.2318C22.8653 51.192 22.7781 51.1338 22.7047 51.0603C22.6312 50.9869 22.573 50.8997 22.5332 50.8037C22.4935 50.7077 22.473 50.6049 22.473 50.501ZM18.973 50.501C18.9735 50.3367 19.026 50.1767 19.123 50.044C18.9753 50.1865 18.7782 50.266 18.573 50.266C18.4112 50.269 18.2522 50.2237 18.1162 50.136C17.9802 50.0483 17.8734 49.922 17.8094 49.7734C17.7454 49.6248 17.7271 49.4605 17.7569 49.3014C17.7866 49.1423 17.863 48.9957 17.9764 48.8802C18.0897 48.7647 18.2349 48.6856 18.3934 48.6529C18.5519 48.6202 18.7165 48.6355 18.8663 48.6967C19.0161 48.7579 19.1443 48.8624 19.2345 48.9967C19.3248 49.131 19.373 49.2892 19.373 49.451C19.3731 49.6245 19.3181 49.7937 19.216 49.934C19.3492 49.8057 19.5226 49.7276 19.7069 49.7128C19.8912 49.698 20.0749 49.7475 20.2268 49.8528C20.3788 49.9582 20.4895 50.1129 20.5402 50.2907C20.591 50.4685 20.5785 50.6584 20.5051 50.828C20.4317 50.9977 20.3017 51.1367 20.1374 51.2214C19.973 51.3061 19.7844 51.3312 19.6037 51.2925C19.4229 51.2539 19.261 51.1538 19.1457 51.0093C19.0304 50.8648 18.9686 50.6849 18.971 50.5L18.973 50.501ZM23.678 49.452C23.6825 49.2968 23.7326 49.1463 23.822 49.0193C23.9113 48.8922 24.0361 48.7943 24.1807 48.7376C24.3253 48.681 24.4833 48.6681 24.6352 48.7005C24.7871 48.733 24.9261 48.8094 25.0349 48.9202C25.1437 49.0311 25.2175 49.1715 25.2471 49.3239C25.2767 49.4764 25.2609 49.6342 25.2016 49.7777C25.1422 49.9212 25.042 50.0441 24.9133 50.1311C24.7847 50.2181 24.6333 50.2654 24.478 50.267C24.3715 50.2666 24.2661 50.2452 24.1679 50.2039C24.0696 50.1626 23.9806 50.1023 23.9058 50.0265C23.8309 49.9506 23.7719 49.8607 23.7319 49.762C23.692 49.6632 23.6719 49.5575 23.673 49.451L23.678 49.452ZM24.755 48.273C24.7536 48.1145 24.7993 47.9591 24.8864 47.8267C24.9735 47.6942 25.0979 47.5906 25.244 47.5289C25.39 47.4673 25.5511 47.4505 25.7067 47.4805C25.8624 47.5106 26.0056 47.5862 26.1182 47.6978C26.2307 47.8094 26.3076 47.952 26.3391 48.1073C26.3705 48.2627 26.3551 48.4239 26.2947 48.5705C26.2344 48.7171 26.1319 48.8424 26.0002 48.9307C25.8685 49.0189 25.7135 49.066 25.555 49.066C25.3435 49.0655 25.1407 48.982 24.9902 48.8336C24.8397 48.6851 24.7534 48.4834 24.75 48.272L24.755 48.273ZM16.673 48.273C16.6716 48.1145 16.7173 47.9591 16.8044 47.8267C16.8915 47.6942 17.0159 47.5906 17.162 47.5289C17.308 47.4673 17.4691 47.4505 17.6247 47.4805C17.7804 47.5106 17.9236 47.5862 18.0362 47.6978C18.1487 47.8094 18.2256 47.952 18.2571 48.1073C18.2885 48.2627 18.2731 48.4239 18.2128 48.5705C18.1524 48.7171 18.0499 48.8424 17.9182 48.9307C17.7865 49.0189 17.6315 49.066 17.473 49.066C17.2616 49.0653 17.059 48.9817 16.9085 48.8333C16.758 48.6848 16.6717 48.4833 16.668 48.272L16.673 48.273ZM25.851 46.966C25.8472 46.7548 25.9271 46.5507 26.0732 46.3983C26.2194 46.2458 26.4199 46.1573 26.631 46.152C26.7262 46.1505 26.8203 46.1725 26.905 46.216C26.7709 46.0616 26.6961 45.8645 26.694 45.66C26.6966 45.5024 26.7456 45.349 26.8351 45.2191C26.9245 45.0893 27.0504 44.9888 27.1968 44.9302C27.3431 44.8717 27.5036 44.8577 27.6579 44.89C27.8122 44.9223 27.9535 44.9995 28.0641 45.1119C28.1747 45.2243 28.2496 45.3668 28.2794 45.5216C28.3093 45.6765 28.2927 45.8367 28.2318 45.9821C28.1709 46.1275 28.0683 46.2517 27.9371 46.339C27.8058 46.4264 27.6517 46.473 27.494 46.473C27.4014 46.4695 27.3094 46.4554 27.22 46.431C27.2917 46.4996 27.3478 46.583 27.3842 46.6754C27.4206 46.7677 27.4366 46.8669 27.431 46.966C27.4348 47.0723 27.4171 47.1783 27.379 47.2776C27.341 47.3769 27.2833 47.4676 27.2094 47.5441C27.1355 47.6207 27.047 47.6815 26.9491 47.7231C26.8512 47.7647 26.7459 47.7861 26.6395 47.7861C26.5331 47.7861 26.4278 47.7647 26.3299 47.7231C26.232 47.6815 26.1435 47.6207 26.0696 47.5441C25.9957 47.4676 25.938 47.3769 25.9 47.2776C25.8619 47.1783 25.8442 47.0723 25.848 46.966H25.851ZM15.597 46.966C15.5953 46.7671 15.6709 46.5752 15.808 46.431C15.7189 46.4571 15.6268 46.4712 15.534 46.473C15.3724 46.4758 15.2136 46.4304 15.0779 46.3426C14.9422 46.2548 14.8357 46.1286 14.772 45.9801C14.7082 45.8316 14.6901 45.6674 14.72 45.5086C14.7499 45.3497 14.8264 45.2034 14.9398 45.0882C15.0532 44.973 15.1983 44.8941 15.3566 44.8617C15.5149 44.8292 15.6793 44.8447 15.8289 44.906C15.9784 44.9673 16.1063 45.0718 16.1963 45.2061C16.2862 45.3404 16.3342 45.4984 16.334 45.66C16.3319 45.8645 16.2571 46.0616 16.123 46.216C16.2077 46.1725 16.3018 46.1506 16.397 46.152C16.5586 46.1492 16.7173 46.1946 16.853 46.2823C16.9887 46.3701 17.0952 46.4962 17.1589 46.6447C17.2227 46.7932 17.2408 46.9572 17.211 47.1161C17.1812 47.2749 17.1048 47.4212 16.9916 47.5364C16.8783 47.6517 16.7333 47.7306 16.575 47.7632C16.4167 47.7957 16.2524 47.7805 16.1028 47.7193C15.9533 47.6581 15.8253 47.5538 15.7352 47.4196C15.6451 47.2855 15.597 47.1276 15.597 46.966ZM34.839 47.138C33.362 46.923 29.986 46.646 28.867 45.552C28.2944 44.8581 27.9223 44.021 27.791 43.131C27.411 41.416 27.201 39.553 26.926 37.817L26.799 36.939L26.018 37.324C24.5993 38.0311 23.0745 38.5017 21.504 38.717C19.9402 38.4987 18.4222 38.0282 17.009 37.324L16.229 36.939L16.103 37.817C15.828 39.552 15.618 41.417 15.237 43.131C15.1052 44.0208 14.7332 44.8579 14.161 45.552C13.043 46.646 9.667 46.923 8.19 47.138C7.29626 47.23 6.40848 47.3729 5.531 47.566C5.77793 44.3664 7.07598 41.3382 9.223 38.953C7.10787 34.565 6.61508 29.5697 7.832 24.853C8.00806 24.9449 8.2025 24.9962 8.401 25.003C9.17092 25.0593 9.94492 25.0088 10.701 24.853C10.8997 26.8637 11.3682 28.8384 12.094 30.724C12.136 30.832 12.178 30.96 12.242 31.089C12.142 31.0468 12.0346 31.0247 11.926 31.024C10.87 31.024 10.026 32.675 10.026 34.666C10.026 36.681 10.869 38.33 11.926 38.33C12.959 38.33 13.803 36.681 13.803 34.666C13.8031 34.3579 13.782 34.0502 13.74 33.745C14.5678 34.8738 15.624 35.8156 16.84 36.509C18.2843 37.3142 19.8653 37.8445 21.503 38.073C23.1482 37.8481 24.7368 37.3177 26.187 36.509C27.4017 35.8212 28.4529 34.8782 29.268 33.745C29.246 34.045 29.226 34.366 29.226 34.666C29.226 36.681 30.07 38.33 31.103 38.33C32.136 38.33 32.981 36.681 32.981 34.666C32.981 32.674 32.138 31.024 31.103 31.024C30.9944 31.0247 30.887 31.0468 30.787 31.089C30.85 30.96 30.892 30.832 30.935 30.724C31.6501 28.8352 32.1176 26.8618 32.326 24.853C33.0821 25.0087 33.8561 25.0592 34.626 25.003C34.8244 24.9936 35.0186 24.9425 35.196 24.853C36.4127 29.5699 35.9192 34.5654 33.803 38.953C35.9445 41.3398 37.2356 44.3683 37.475 47.566C36.6036 47.3725 35.7218 47.2292 34.834 47.137L34.839 47.138ZM26.399 42.574C26.125 41.182 25.893 39.638 25.683 38.204C25.893 38.1175 26.0971 38.0172 26.294 37.904C26.5444 40.0254 26.9251 42.1294 27.434 44.204C27.2176 44.2198 27.008 44.2862 26.822 44.398C26.6388 43.8002 26.4958 43.1909 26.394 42.574H26.399ZM15.599 44.202C16.1077 42.1284 16.4812 40.024 16.717 37.902C16.907 38.01 17.098 38.096 17.287 38.181C17.076 39.616 16.907 41.181 16.633 42.573C16.5301 43.1811 16.3895 43.7823 16.212 44.373C16.018 44.2769 15.8077 44.2183 15.592 44.2L15.599 44.202ZM29.841 34.239C29.841 32.868 30.411 31.776 31.106 31.776C31.801 31.776 32.372 32.869 32.372 34.239C32.372 35.589 31.803 36.682 31.106 36.682C30.409 36.682 29.834 35.589 29.834 34.239H29.841ZM10.662 34.239C10.662 32.868 11.232 31.776 11.928 31.776C12.624 31.776 13.193 32.869 13.193 34.239C13.193 35.589 12.623 36.682 11.928 36.682C11.233 36.682 10.655 35.589 10.655 34.239H10.662ZM23.574 19.884C24.077 19.5372 24.4879 19.073 24.7711 18.5316C25.0542 17.9903 25.2011 17.388 25.199 16.777C25.2105 16.2849 25.1234 15.7955 24.943 15.3376C24.7626 14.8796 24.4925 14.4624 24.1486 14.1103C23.8046 13.7582 23.3937 13.4784 22.9401 13.2874C22.4864 13.0964 21.9992 12.9981 21.507 12.9981C21.0148 12.9981 20.5276 13.0964 20.0739 13.2874C19.6203 13.4784 19.2094 13.7582 18.8654 14.1103C18.5215 14.4624 18.2514 14.8796 18.071 15.3376C17.8906 15.7955 17.8035 16.2849 17.815 16.777C17.8175 17.3871 17.9664 17.9877 18.2492 18.5284C18.5319 19.069 18.9403 19.5339 19.44 19.884C14.818 23.173 11.489 24.378 8.955 24.378C8.78234 24.378 8.613 24.3727 8.447 24.362C5.873 24.191 3.952 12.706 6.674 12.706H7.644C9.368 3.57799 12.849 0 21.5 0C30.151 0 33.653 3.57799 35.383 12.705H36.353C39.076 12.705 37.153 24.19 34.581 24.361C34.414 24.372 34.243 24.377 34.07 24.377C31.52 24.377 28.209 23.173 23.567 19.884H23.574ZM35.326 23.184C35.503 22.9071 35.6514 22.6129 35.769 22.306C34.4289 22.1571 33.1114 21.8479 31.845 21.385C32.9222 22.1296 34.09 22.7338 35.32 23.183L35.326 23.184ZM7.257 22.3C7.37491 22.6069 7.52366 22.9011 7.701 23.178C8.93354 22.7286 10.1037 22.1237 11.183 21.378C9.91591 21.8412 8.59783 22.1508 7.257 22.3ZM36.923 17.759C36.987 17.286 37.007 16.836 37.028 16.409C34.0263 16.5418 31.0211 16.2458 28.103 15.53C30.906 16.7373 33.8832 17.491 36.923 17.763V17.759ZM6.097 17.759C9.13629 17.4885 12.1132 16.7361 14.916 15.53C11.9982 16.2457 8.99332 16.5417 5.992 16.409C5.99819 16.8622 6.03427 17.3145 6.1 17.763L6.097 17.759ZM34.75 12.701C34.664 12.358 34.602 12.016 34.538 11.673C31.663 12.1198 28.7462 12.2349 25.845 12.016C29.286 13.2 34.751 12.705 34.751 12.705L34.75 12.701ZM8.27 12.701C8.27 12.701 13.735 13.194 17.17 12.016C14.2688 12.2348 11.352 12.1198 8.477 11.673C8.419 12.02 8.335 12.362 8.271 12.705L8.27 12.701ZM18.44 16.773C18.4495 16.1701 18.6369 15.5835 18.9787 15.0868C19.3205 14.5901 19.8015 14.2055 20.3613 13.9813C20.921 13.7571 21.5345 13.7034 22.1247 13.8268C22.7149 13.9501 23.2554 14.2452 23.6784 14.6749C24.1015 15.1045 24.3881 15.6496 24.5023 16.2416C24.6165 16.8337 24.5531 17.4463 24.3203 18.0024C24.0874 18.5586 23.6954 19.0336 23.1934 19.3676C22.6914 19.7017 22.102 19.8799 21.499 19.88C20.6824 19.8729 19.9019 19.5422 19.3287 18.9605C18.7554 18.3789 18.4362 17.5937 18.441 16.777L18.44 16.773ZM21.162 15.788C21.1592 15.9473 21.1882 16.1056 21.2472 16.2537C21.3063 16.4017 21.3942 16.5365 21.506 16.6501C21.6177 16.7638 21.7509 16.8541 21.8979 16.9157C22.0449 16.9773 22.2026 17.009 22.362 17.009C22.5254 17.0137 22.688 16.9855 22.8403 16.9262C22.9925 16.867 23.1314 16.7777 23.2486 16.6638C23.3658 16.55 23.4589 16.4137 23.5226 16.2632C23.5862 16.1127 23.6189 15.9509 23.6189 15.7875C23.6189 15.6241 23.5862 15.4623 23.5226 15.3118C23.4589 15.1613 23.3658 15.025 23.2486 14.9111C23.1314 14.7972 22.9925 14.708 22.8403 14.6487C22.688 14.5895 22.5254 14.5613 22.362 14.566C22.2024 14.5661 22.0444 14.5981 21.8972 14.66C21.7501 14.7219 21.6168 14.8126 21.5052 14.9266C21.3935 15.0407 21.3057 15.1759 21.247 15.3243C21.1882 15.4728 21.1597 15.6314 21.163 15.791L21.162 15.788Z"
    fill="white"/>
</svg>
