<svg fill="none" height="62" viewBox="0 0 47 62" width="47" xmlns="http://www.w3.org/2000/svg">
  <path
    d="M15.5001 37.3125C15.2324 37.3106 14.9702 37.3883 14.7468 37.5358C14.5234 37.6833 14.3489 37.8939 14.2456 38.1409C14.1423 38.3879 14.1148 38.66 14.1666 38.9226C14.2184 39.1852 14.3472 39.4265 14.5366 39.6157C14.7259 39.805 14.9673 39.9336 15.23 39.9852C15.4927 40.0368 15.7648 40.0091 16.0116 39.9056C16.2585 39.8021 16.469 39.6275 16.6164 39.404C16.7637 39.1805 16.8412 38.9182 16.8391 38.6505V38.5505C16.7346 38.594 16.6222 38.6154 16.5091 38.6135C16.2891 38.6114 16.0789 38.5223 15.9245 38.3656C15.7701 38.209 15.684 37.9975 15.6851 37.7775C15.682 37.6221 15.7251 37.4693 15.8091 37.3385C15.707 37.3212 15.6035 37.3141 15.5001 37.3175"
    fill="white"/>
  <path
    d="M39.9671 27.319C38.5948 28.0265 37.3313 28.9274 36.2151 29.994C33.2461 32.65 30.1151 35.994 28.3151 35.388C24.9351 34.238 28.0271 22.928 28.7281 20.293C29.6761 16.76 30.8101 12.913 31.4071 10.993C31.9639 9.51933 32.366 7.9918 32.6071 6.43501C32.8951 3.59201 29.8071 1.41801 28.1341 4.86701C25.8251 9.94701 23.0841 17.367 20.8781 22.722C20.0951 24.311 19.5591 24.373 19.5591 22.576C19.654 20.8785 19.8544 19.1886 20.1591 17.516C20.3431 16.2 22.6111 7.50001 22.4671 3.04501C22.4461 0.159012 18.5921 -2.01499 17.3341 2.98201C17.2731 3.56701 15.4791 18.307 14.3251 22.719C13.6251 25.352 13.1101 24.831 12.9651 22.677C12.7381 19.331 12.7381 10.132 12.5321 5.59501C12.3051 1.97801 8.26609 1.70701 7.95609 6.01401C7.77109 10.655 7.95609 19.708 7.50309 24.078C7.17309 29.953 5.46209 17.388 5.13209 15.84C4.90609 14.84 4.65809 13.707 4.24609 11.93C3.05009 8.04101 -0.288906 8.27201 0.0200939 12.474C0.185094 14.795 0.638094 17.491 1.01009 19.896C1.90009 25.6 1.79209 35.3 3.02909 43.4C3.99192 49.2019 4.39378 55.0831 4.22909 60.962C10.5981 60.983 16.9681 60.983 23.3371 61.004C23.0691 49.275 25.6861 50.215 30.9421 44.842C35.5421 40.142 39.2691 34.87 44.8351 30.642C47.6181 28.531 45.2061 25.081 39.9711 27.319H39.9671ZM24.5481 38.65C23.6855 40.31 22.388 41.7044 20.7944 42.684C19.2007 43.6637 17.3707 44.1919 15.5001 44.212C13.6299 44.1893 11.8008 43.6601 10.2074 42.6808C8.61403 41.7014 7.3159 40.3084 6.45109 38.65C7.31594 36.9917 8.61412 35.5989 10.2075 34.6197C11.8009 33.6405 13.63 33.1115 15.5001 33.089C17.3706 33.109 19.2006 33.6369 20.7943 34.6164C22.3879 35.5959 23.6855 36.9901 24.5481 38.65ZM21.8481 26.524C21.8481 26.524 11.5621 34.113 4.94809 31.833C10.7808 30.7753 16.4583 28.9918 21.8481 26.524ZM4.53409 50.567C4.45109 49.647 4.36909 48.748 4.24509 47.808C5.35809 49.083 7.56409 49.92 11.3771 49.836C10.9641 50.672 7.85209 52.01 4.53409 50.567ZM22.7141 60.373H21.4141L20.8591 53.1C19.6125 53.0979 18.3855 52.7899 17.2857 52.203C16.1859 51.6162 15.2469 50.7684 14.5511 49.734C18.9001 52.557 25.6821 48.46 25.6821 48.46C23.5591 50.551 22.5491 52.871 22.7141 60.377"
    fill="white"/>
  <path
    d="M6.9049 38.6493C7.94526 39.911 9.26215 40.9161 10.7535 41.5869C12.2449 42.2577 13.8707 42.576 15.5049 42.5173C17.1383 42.5753 18.7631 42.2566 20.2536 41.5859C21.744 40.9151 23.0601 39.9103 24.0999 38.6493C23.0595 37.3878 21.7426 36.3828 20.2512 35.7122C18.7598 35.0416 17.134 34.7234 15.4999 34.7823C13.8658 34.7234 12.24 35.0416 10.7486 35.7122C9.25723 36.3828 7.94031 37.3878 6.8999 38.6493H6.9049ZM18.6489 38.6493C18.6422 39.2694 18.4522 39.8737 18.1029 40.3861C17.7536 40.8986 17.2606 41.2963 16.6858 41.5292C16.1111 41.7621 15.4803 41.8198 14.8728 41.6951C14.2653 41.5703 13.7083 41.2688 13.2718 40.8282C12.8353 40.3877 12.5388 39.8279 12.4197 39.2193C12.3005 38.6107 12.364 37.9805 12.6022 37.4079C12.8403 36.8353 13.2425 36.3459 13.7581 36.0013C14.2737 35.6567 14.8797 35.4723 15.4999 35.4713C16.3387 35.4771 17.1411 35.8146 17.7318 36.41C18.3226 37.0055 18.6537 37.8105 18.6529 38.6493"
    fill="white"/>
</svg>
