<svg fill="none" height="64" viewBox="0 0 55 64" width="55" xmlns="http://www.w3.org/2000/svg">
  <path
    d="M24.3319 60.2927C24.2438 60.3388 24.141 60.3481 24.0462 60.3185C23.9513 60.2888 23.872 60.2227 23.8259 60.1347L22.9509 58.5767C22.2798 58.7063 21.5844 58.5905 20.9916 58.2504C20.3987 57.9103 19.9477 57.3685 19.7209 56.7237L18.5349 53.4707C18.1173 53.2095 17.7731 52.8462 17.5348 52.4151C17.2965 51.984 17.1719 51.4993 17.1729 51.0067V49.7647L15.4219 44.9347L2.67786 21.8677C2.65427 21.8238 2.63958 21.7757 2.63465 21.7261C2.62973 21.6765 2.63466 21.6265 2.64916 21.5788C2.66366 21.5311 2.68744 21.4868 2.71914 21.4483C2.75084 21.4099 2.78982 21.378 2.83386 21.3547L6.14086 19.4827L5.26586 17.1367L1.16087 19.4637C0.634747 19.7736 0.249463 20.2756 0.0862354 20.864C-0.0769922 21.4523 -0.00541407 22.0811 0.285866 22.6177L21.9409 61.8107C22.0851 62.0752 22.2801 62.3086 22.5148 62.4974C22.7494 62.6863 23.0191 62.8269 23.3083 62.9112C23.5975 62.9954 23.9005 63.0218 24.1999 62.9886C24.4993 62.9554 24.7891 62.8633 25.0528 62.7177L40.5599 53.9247H35.5599L24.3319 60.2927Z"
    fill="white"/>
  <path
    d="M17.1717 48.046V42.486L16.6077 39.352L7.38573 14.038C7.36725 13.9915 7.35814 13.9418 7.3589 13.8918C7.35966 13.8418 7.37028 13.7924 7.39017 13.7465C7.41005 13.7006 7.43878 13.6591 7.47475 13.6244C7.51071 13.5896 7.55319 13.5623 7.59973 13.544L11.6857 12.027L11.2387 9.54297L6.25774 11.415C5.6853 11.6333 5.22164 12.0679 4.96683 12.625C4.71201 13.1822 4.68648 13.8172 4.89574 14.393L17.1717 48.046Z"
    fill="white"/>
  <path d="M34.7601 0.730083L33.2041 1.32209L36.3361 0.730083C35.8274 0.543097 35.2688 0.543097 34.7601 0.730083Z"
        fill="white"/>
  <path
    d="M43.2441 2.58252C43.3432 2.56312 43.4459 2.58381 43.5297 2.64006C43.6135 2.6963 43.6715 2.7835 43.6911 2.88252L43.7291 3.18252H46.2221L46.0071 1.92052C45.9554 1.62245 45.8454 1.3375 45.6834 1.082C45.5214 0.826511 45.3106 0.605492 45.063 0.431599C44.8155 0.257706 44.536 0.134358 44.2407 0.0686229C43.9454 0.00288798 43.64 -0.00394286 43.3421 0.0485194L26.4541 3.18252H40.0541L43.2441 2.58252Z"
    fill="white"/>
  <path
    d="M17.1719 39.1931V25.3931L14.0979 8.36008C14.0866 8.31086 14.0859 8.25981 14.0958 8.2103C14.1057 8.16078 14.1261 8.11395 14.1555 8.0729C14.1849 8.03185 14.2227 7.99753 14.2664 7.97222C14.3101 7.94691 14.3587 7.93118 14.4089 7.92608L17.1719 7.41408V6.07208C17.1689 5.64085 17.2687 5.21509 17.4629 4.83008L13.4349 5.57908C12.8355 5.69677 12.3069 6.04661 11.9643 6.55236C11.6217 7.05811 11.4929 7.67877 11.6059 8.27908L17.1719 39.1931Z"
    fill="white"/>
  <path d="M21.7828 8.95117L21.5298 10.6512H22.0358L21.7828 8.95117Z" fill="white"/>
  <path
    d="M50.442 3.76562H20.051C19.4409 3.76853 18.8566 4.0126 18.4257 4.4446C17.9949 4.87661 17.7523 5.46148 17.751 6.07162V51.0016C17.7481 51.615 17.9886 52.2045 18.4198 52.6408C18.851 53.077 19.4376 53.3244 20.051 53.3286H50.442C51.0515 53.3191 51.6327 53.0693 52.0589 52.6335C52.4852 52.1977 52.722 51.6112 52.718 51.0016V6.07162C52.7178 5.46528 52.4789 4.88339 52.0529 4.45184C51.627 4.02028 51.0483 3.77377 50.442 3.76562ZM24.293 7.59262H48.093C48.2183 7.59208 48.3422 7.61861 48.4563 7.67039C48.5704 7.72216 48.6719 7.79797 48.754 7.89262C48.8472 7.97739 48.9214 8.08091 48.9717 8.19638C49.022 8.31185 49.0473 8.43667 49.046 8.56262V39.1406H48.501V8.55663C48.4964 8.44658 48.4556 8.34112 48.385 8.25662C48.3472 8.2177 48.3017 8.18703 48.2514 8.16655C48.2012 8.14607 48.1472 8.13622 48.093 8.13762H24.293V7.59262ZM41.722 25.3146C41.722 28.5476 38.492 31.7816 35.243 34.9946C31.993 31.7816 28.743 28.5486 28.743 25.3146C28.7438 24.8889 28.8285 24.4676 28.9922 24.0746C29.156 23.6817 29.3956 23.3249 29.6973 23.0246C29.9991 22.7244 30.3571 22.4865 30.7508 22.3247C31.1445 22.1629 31.5663 22.0803 31.992 22.0816C33.607 22.0816 34.424 22.8896 35.242 24.5066C36.059 22.8896 36.857 22.0816 38.491 22.0816C38.9158 22.0804 39.3367 22.1633 39.7293 22.3253C40.122 22.4874 40.4787 22.7255 40.779 23.026C41.0793 23.3265 41.3172 23.6834 41.479 24.0762C41.6409 24.4689 41.7234 24.8898 41.722 25.3146ZM21.433 8.35962H22.192L22.717 11.7106H22.192L22.092 11.0996H21.47L21.37 11.7106H20.883L21.433 8.35962ZM21.044 13.2096C21.433 13.2096 21.608 13.3866 21.802 13.7806C21.996 13.3866 22.192 13.2096 22.58 13.2096C22.7792 13.2099 22.9704 13.2884 23.1122 13.4284C23.254 13.5683 23.3351 13.7584 23.338 13.9576C23.338 14.7266 22.58 15.4956 21.801 16.2646C21.043 15.4956 20.283 14.7266 20.283 13.9576C20.283 13.8583 20.3028 13.76 20.3412 13.6683C20.3796 13.5767 20.4358 13.4937 20.5067 13.4241C20.5775 13.3544 20.6615 13.2996 20.7538 13.2628C20.846 13.226 20.9447 13.2079 21.044 13.2096ZM46.336 49.4846H22.386C22.263 49.4853 22.1412 49.4613 22.0277 49.4141C21.9141 49.3668 21.8112 49.2973 21.725 49.2096C21.5562 49.0261 21.4593 48.7879 21.452 48.5386V17.9386H21.997V48.5386C21.9981 48.6424 22.0402 48.7416 22.114 48.8146C22.1494 48.8515 22.1917 48.8809 22.2386 48.9011C22.2855 48.9214 22.3359 48.9321 22.387 48.9326H46.337L46.336 49.4846ZM49.061 48.7366H48.302L47.777 45.3846H48.244L48.344 45.9766H48.986L49.064 45.3846H49.589L49.061 48.7366ZM49.45 43.8666C49.061 43.8666 48.866 43.6886 48.672 43.2956C48.496 43.6886 48.302 43.8666 47.914 43.8666C47.8148 43.8681 47.7162 43.8498 47.6242 43.8128C47.5321 43.7758 47.4482 43.7208 47.3776 43.6511C47.307 43.5814 47.2509 43.4983 47.2127 43.4067C47.1745 43.3152 47.1549 43.2169 47.155 43.1176C47.155 42.3486 47.914 41.5796 48.673 40.8306C49.451 41.5796 50.21 42.3486 50.21 43.1176C50.21 43.2169 50.1903 43.3151 50.1519 43.4067C50.1136 43.4982 50.0574 43.5812 49.9867 43.6508C49.916 43.7204 49.8321 43.7753 49.7399 43.8122C49.6478 43.849 49.5492 43.8672 49.45 43.8656V43.8666Z"
    fill="white"/>
  <path d="M48.6529 48.1434L48.9059 46.4434H48.3999L48.6529 48.1434Z" fill="white"/>
  <path
    d="M24.487 53.9199H20.46C20.7122 54.1039 20.9989 54.2354 21.303 54.3065C21.607 54.3776 21.9222 54.3869 22.23 54.3339L24.487 53.9199Z"
    fill="white"/>
  <path
    d="M19.5839 53.8798C19.4781 53.8628 19.3741 53.8363 19.2729 53.8008L20.2649 56.5218C20.4757 57.0956 20.905 57.5628 21.459 57.8214C22.0129 58.0799 22.6467 58.1088 23.2219 57.9018L33.845 53.9188H27.7359L25.8679 54.2538L22.853 55.3778C22.8083 55.397 22.7601 55.4067 22.7115 55.406C22.6629 55.4053 22.6149 55.3944 22.5708 55.3739C22.5267 55.3534 22.4875 55.3238 22.4556 55.2871C22.4237 55.2504 22.4 55.2073 22.3859 55.1608L22.2859 54.9248C21.7834 55.0058 21.2683 54.9517 20.7935 54.7681C20.3187 54.5845 19.9012 54.2779 19.5839 53.8798Z"
    fill="white"/>
  <path
    d="M53.9637 46.0923L53.3027 42.4453V48.1823C53.5754 47.9145 53.7783 47.584 53.8935 47.2196C54.0087 46.8552 54.0329 46.4682 53.9637 46.0923Z"
    fill="white"/>
</svg>
